<svg width="24" height="24" viewBox="0 0 24 24" fill="none" xmlns="http://www.w3.org/2000/svg">
  <path opacity="0.2"
    d="M10 2.5L9 4.5H15L14 2.5H10ZM2.5 6.5C2.223 6.5 2 6.723 2 7V14.5V15.1582V20.0918C2 20.87 2.63881 21.5 3.42773 21.5H20.5723C21.3612 21.5 22 20.87 22 20.0918V15.1582V13.5V7C22 6.723 21.777 6.5 21.5 6.5H2.5Z"
    fill="black" />
  <path d="M9 4L10 2H14L15 4H9Z" fill="#9C9C9C" />
  <path d="M10 2L8 3.33333V7H10V2Z" fill="#E4E4E4" />
  <path d="M2 13V14.6591V19.5909C2 20.3691 2.63965 21 3.42857 21H20.5714C21.3604 21 22 20.3691 22 19.5909V14.6591V13H2Z"
    fill="#E4E4E4" />
  <path d="M14 2L16 3.33333V7H14V2Z" fill="#E4E4E4" />
  <path d="M2.5 6H21.5C21.777 6 22 6.223 22 6.5V14H2V6.5C2 6.223 2.223 6 2.5 6Z" fill="#CCCCCC" />
  <path opacity="0.2"
    d="M2.5 6C2.223 6 2 6.223 2 6.5V7C2 6.723 2.223 6.5 2.5 6.5H21.5C21.777 6.5 22 6.723 22 7V6.5C22 6.223 21.777 6 21.5 6H2.5Z"
    fill="#DDDDDD" />
  <path opacity="0.2" d="M10 2L8 3.33398V3.83398L10 2.5H14L16 3.83398V3.33398L14 2H10Z" fill="#DDDDDD" />
  <path
    d="M11.6847 9.94097C11.86 9.85243 12.067 9.85232 12.2424 9.94086C12.3498 9.99511 12.4392 10.0797 12.4993 10.1839L15.767 15.8437C15.8333 15.9585 15.794 16.1053 15.6792 16.1716C15.5844 16.2263 15.4633 16.1937 15.4087 16.0988L12.7167 11.4209C12.6324 11.2743 12.507 11.1555 12.3562 11.0791C12.1093 10.954 11.8175 10.954 11.5706 11.0791C11.4198 11.1555 11.2944 11.2743 11.2101 11.4209L8.5178 16.099C8.46332 16.1937 8.34237 16.2262 8.24779 16.1716C8.13302 16.1053 8.09374 15.9585 8.16002 15.8437L11.4278 10.1838C11.488 10.0796 11.5772 9.99522 11.6847 9.94097Z"
    fill="black" fill-opacity="0.1" />
  <path fill-rule="evenodd" clip-rule="evenodd"
    d="M12.2424 11.4038C12.0671 11.3153 11.8601 11.3153 11.6847 11.4038C11.5773 11.4581 11.488 11.5425 11.4278 11.6467L8.22004 17.2027C8.12063 17.3749 8.17963 17.5951 8.35181 17.6945L8.97536 18.0545C9.14753 18.1539 9.36771 18.0949 9.46712 17.9227L11.8596 13.7787C11.9058 13.6987 12.0213 13.6987 12.0675 13.7787L14.46 17.9227C14.5595 18.0949 14.7796 18.1539 14.9518 18.0545L15.5754 17.6945C15.7475 17.5951 15.8065 17.3749 15.7071 17.2027L12.4994 11.6467C12.4392 11.5425 12.3499 11.4581 12.2424 11.4038Z"
    fill="black" fill-opacity="0.1" />
  <path
    d="M11.6847 9.44097C11.86 9.35243 12.067 9.35232 12.2424 9.44086C12.3498 9.49511 12.4392 9.57965 12.4993 9.68391L15.767 15.3437C15.8333 15.4585 15.794 15.6053 15.6792 15.6716C15.5844 15.7263 15.4633 15.6937 15.4087 15.5988L12.7167 10.9209C12.6324 10.7743 12.507 10.6555 12.3562 10.5791C12.1093 10.454 11.8175 10.454 11.5706 10.5791C11.4198 10.6555 11.2944 10.7743 11.2101 10.9209L8.5178 15.599C8.46332 15.6937 8.34237 15.7262 8.24779 15.6716C8.13302 15.6053 8.09374 15.4585 8.16002 15.3437L11.4278 9.68379C11.488 9.57958 11.5772 9.49522 11.6847 9.44097Z"
    fill="#008BBE" />
  <path fill-rule="evenodd" clip-rule="evenodd"
    d="M12.2424 10.9038C12.0671 10.8153 11.8601 10.8153 11.6847 10.9038C11.5773 10.9581 11.488 11.0425 11.4278 11.1467L8.22004 16.7027C8.12063 16.8749 8.17963 17.0951 8.35181 17.1945L8.97536 17.5545C9.14753 17.6539 9.36771 17.5949 9.46712 17.4227L11.8596 13.2787C11.9058 13.1987 12.0213 13.1987 12.0675 13.2787L14.46 17.4227C14.5595 17.5949 14.7796 17.6539 14.9518 17.5545L15.5754 17.1945C15.7475 17.0951 15.8065 16.8749 15.7071 16.7027L12.4994 11.1467C12.4392 11.0425 12.3499 10.9581 12.2424 10.9038Z"
    fill="#00BBFF" />
</svg>