<svg width="829" height="802" viewBox="0 0 829 802" fill="none" xmlns="http://www.w3.org/2000/svg">
  <circle cx="385" cy="415" r="275" fill="#644B2D" />
  <path
    d="M659.819 405C659.938 408.319 660 411.652 660 415C660 566.878 536.878 690 385 690C233.122 690 110 566.878 110 415C110 411.652 110.061 408.319 110.18 405C115.443 552.246 236.469 670 385 670C533.531 670 654.556 552.246 659.819 405Z"
    fill="#45341F" />
  <path
    d="M385 140C536.878 140 660 263.122 660 415C660 418.348 659.938 421.681 659.819 425C654.556 277.754 533.531 160 385 160C236.469 160 115.443 277.754 110.18 425C110.061 421.681 110 418.348 110 415C110 263.122 233.122 140 385 140Z"
    fill="#917452" />
  <path
    d="M195.522 495.852C285.071 273.669 528.438 148.193 765.687 211.764C775.946 214.513 782.034 225.058 779.285 235.317C715.707 472.594 485.312 620.625 248.092 587.039L202.201 711.234C196.328 727.126 174.592 728.974 166.12 714.302L44.2385 503.196C35.7673 488.523 48.2359 470.623 64.9352 473.483L195.522 495.852Z"
    fill="#B79855" />
  <path
    d="M777.654 221.248C779.888 225.409 780.603 230.395 779.285 235.316C715.707 472.593 485.312 620.623 248.093 587.037L202.201 711.234C196.328 727.126 174.592 728.974 166.121 714.302L44.239 503.196C40.4006 496.548 40.8607 489.236 44.0662 483.494L44.239 483.196L166.121 694.302C174.592 708.974 196.328 707.126 202.201 691.234L248.093 567.039C483.329 600.344 711.853 455.055 777.654 221.248Z"
    fill="#927942" />
  <path
    d="M195.522 408.852C285.071 186.669 528.438 61.1936 765.687 124.764C775.946 127.513 782.034 138.058 779.285 148.317C715.707 385.594 485.312 533.623 248.093 500.038L202.201 624.234C196.328 640.126 174.592 641.974 166.12 627.302L44.2384 416.196C35.7674 401.523 48.2359 383.623 64.935 386.483L195.522 408.852ZM628.185 147.621C616.228 154.525 612.131 169.815 619.034 181.772C625.938 193.729 641.228 197.826 653.185 190.923C665.142 184.019 669.239 168.729 662.336 156.772C655.432 144.815 640.142 140.718 628.185 147.621Z"
    fill="#FFD57B" />
  <path
    d="M195.522 408.852C285.072 186.669 528.438 61.1931 765.687 124.764C775.946 127.513 782.033 138.058 779.285 148.316C778.694 150.522 778.086 152.719 777.466 154.908C775.018 150.558 770.89 147.159 765.687 145.765C528.438 82.1941 285.072 207.669 195.522 429.852L64.9352 407.483C56.1538 405.979 48.5439 410.217 44.5319 416.706L44.238 416.196C35.767 401.524 48.2361 383.624 64.9352 386.483L195.522 408.852Z"
    fill="#FFF2D5" />
  <path
    d="M777.655 134.249C779.888 138.41 780.604 143.396 779.285 148.317C715.707 385.594 485.312 533.625 248.092 500.039L202.2 624.233C196.328 640.126 174.593 641.974 166.121 627.302L44.2385 416.195C40.3334 409.431 40.8802 401.982 44.2385 396.196L166.12 607.302C174.592 621.974 196.329 620.126 202.201 604.234L248.093 480.038C483.33 513.343 711.853 368.056 777.655 134.249Z"
    fill="#D0AF6A" />
</svg>