<?xml version="1.0" encoding="UTF-8"?>
<svg id="Layer_1" data-name="Layer 1" xmlns="http://www.w3.org/2000/svg" viewBox="0 0 1000 1000">
  <defs>
    <style>
      .cls-1 {
        fill: #596481;
      }

      .cls-2 {
        fill: #314478;
      }

      .cls-3 {
        fill: #3e4f7b;
      }

      .cls-4 {
        fill: #364879;
      }

      .cls-5 {
        fill: #314578;
      }

      .cls-6 {
        fill: #82858c;
      }

      .cls-7 {
        fill: #87898d;
      }

      .cls-8 {
        fill: #fcfcfc;
      }

      .cls-9 {
        fill: #636c84;
      }

      .cls-10 {
        fill: #3a3798;
      }

      .cls-11 {
        fill: #5d6882;
      }

      .cls-12 {
        fill: #354779;
      }

      .cls-13 {
        fill: #3b4d7b;
      }

      .cls-14 {
        fill: #767c89;
      }

      .cls-15 {
        fill: #fe0217;
      }

      .cls-16 {
        fill: #757b89;
      }

      .cls-17 {
        fill: #fe6a00;
      }

      .cls-18 {
        fill: #364979;
      }

      .cls-19 {
        fill: #8d8e8f;
      }

      .cls-20 {
        fill: #384a7a;
      }

      .cls-21 {
        fill: #85878d;
      }

      .cls-22 {
        fill: #929292;
      }

      .cls-23 {
        fill: #7f3300;
      }

      .cls-24 {
        fill: #47567e;
      }

      .cls-25 {
        fill: #2e4277;
      }

      .cls-26 {
        fill: #fed700;
      }

      .cls-27 {
        fill: #2f4378;
      }

      .cls-28 {
        fill: #7f818b;
      }

      .cls-29 {
        fill: #46557d;
      }

      .cls-30 {
        fill: #324578;
      }

      .cls-31 {
        fill: #304478;
      }

      .cls-32 {
        fill: #7f828b;
      }

      .cls-33 {
        fill: #44547d;
      }

      .cls-34 {
        fill: #2b4077;
      }

      .cls-35 {
        fill: #4e5c7f;
      }

      .cls-36 {
        fill: #88898d;
      }

      .cls-38 {
        fill: #80838c;
      }

      .cls-39 {
        fill: #8c8d8f;
      }

      .cls-40 {
        fill: #556180;
      }
    </style>
  </defs>
  <path class="cls-34" d="M125,812.5c-.17-10.38.12-20.86,0-31.25h-31.25v-62.5h-31.25v-281.25h31.25v-62.5h31.25v-31.25h31.25v-31.25h31.25v-31.25h31.25v-31.25h62.5v-31.25h312.5c0,10.39,0,20.86,0,31.25,7.2.63,3.92,33.02,1.63,33.82-9.44,3.32-24.01,2.07-32.88-2.57-8.69,5.33-19.45,5.07-28.96,2.12,2.82,9.67,2.49,20.07-2.29,29.13-9.2,5.89-21.89,5.73-31.25,0,6.4,3.22,6.12,27.47,0,31.25-3.22,6.4-27.47,6.12-31.25,0,6.4,3.22,6.12,27.47,0,31.25,3.22-6.4,27.47-6.12,31.25,0,6.4,3.22,6.12,27.47,0,31.25,3.22-6.4,27.47-6.12,31.25,0,6.4,3.22,6.12,27.47,0,31.25,3.22-6.4,27.47-6.12,31.25,0-6.4-3.22-6.12-27.47,0-31.25,3.22-6.4,27.47-6.12,31.25,0-5.73-9.36-5.89-22.05,0-31.25,9.05-4.79,19.45-5.12,29.13-2.29-2.95-9.51-3.21-20.26,2.12-28.96-5.68-9.37-5.85-22.04,0-31.25,3.22-6.4,27.47-6.12,31.25,0-6.4-3.22-6.12-27.47,0-31.25,9.21-5.85,21.88-5.68,31.25,0v31.25h31.25v31.25h31.25v31.25h31.25v62.5h31.25c-.11,62.47.15,125.03,0,187.5,5.31,31.13,5.4,62.63,0,93.75-3.22,6.4-27.47,6.12-31.25,0,1.53.17,3.82.67,3.91,1.75.53,6.98,1.19,54.47,0,57.92l-3.91,2.83c-3.22,6.4-27.47,6.12-31.25,0,6.4,3.22,6.12,27.47,0,31.25-3.22,6.4-27.47,6.12-31.25,0,6.4,3.22,6.12,27.47,0,31.25-3.22,6.4-27.47,6.12-31.25,0,6.4,3.22,6.12,27.47,0,31.25-3.22,6.4-27.47,6.12-31.25,0,6.4,3.22,6.12,27.47,0,31.25-.17,1.53-.67,3.82-1.75,3.91-6.98.53-54.47,1.19-57.92,0l-2.83-3.91c6.4,3.22,6.12,27.47,0,31.25-83.02,5.93-167.02,6.53-250,0-20.8-.1-41.7.08-62.5,0v-31.25h-62.5v-31.25h-31.25v-31.25c-10.39-.12-20.87.17-31.25,0l-3.91-2.23v-25.01s-24.57-.1-24.57-.1l-2.78-3.91Z"/>
  <path class="cls-22" d="M812.5,625h31.25v125h-31.25v62.5h-31.25v31.25h-31.25v31.25h-31.25v31.25h-31.25v31.25h-62.5v31.25h-281.25v-31.25c83.3.41,166.7-.31,250,0v-31.25h62.5v-31.25h31.25v-31.25h31.25v-31.25h31.25v-31.25h31.25v-62.5h31.25c.05-31.22-.07-62.53,0-93.75Z"/>
  <path class="cls-23" d="M750,187.5c5.31,10.28,5.41,21.01,0,31.25-.08,10.39.06,20.86,0,31.25h-31.25v31.25c-10.39.12-20.87-.17-31.25,0s-20.86-.12-31.25,0v31.25h-31.25c-.12,10.39.17,20.87,0,31.25l-2.23,3.91h-25.01c1.25,10.09-.09,19.21-4.01,27.34-12.96,3.42-59.26,7.7-64.73,2.23-5.47-5.47-1.19-51.77,2.23-64.73,8.18-5.25,18.06-4.42,27.35-3.36v-25.11s3.9-2.78,3.9-2.78c10.39-.17,20.87.12,31.26.01v-31.26s31.24,0,31.24,0v-31.25h62.5v-31.25h62.5Z"/>
  <path class="cls-26" d="M781.25,156.25c.08-10.39-.06-20.86,0-31.25h93.75c.06,10.39-.08,20.86,0,31.25,10.39.08,20.86-.06,31.25,0v31.25c-10.39.06-20.86-.08-31.25,0-.08,10.39.06,20.87.01,31.26-10.39.04-20.87-.09-31.26-.01-4.79-10.54-4.84-20.73,0-31.25,10.53-4.77,20.72-4.77,31.25,0-4.77-10.53-4.77-20.72,0-31.25-10.28,5.3-21,5.38-31.25,0-10.37,3.79-20.88,3.79-31.25,0-10.25,5.38-20.97,5.3-31.25,0,5.21,20.7,5.21,41.8,0,62.5,20.39-5.64,42.09-5.53,62.5,0-.08,10.39.06,20.86,0,31.25h-62.5c-.06-10.39.08-20.86,0-31.25h-31.25c.08-10.39-.08-20.86,0-31.25s-.06-20.87-.01-31.26c10.39-.05,20.87.09,31.26.01Z"/>
  <path class="cls-8" d="M125,812.5h31.26s-.01,31.25-.01,31.25c-10.39-.17-20.87.12-31.26.01-.11-10.39.18-20.87.01-31.26Z"/>
  <path class="cls-10" d="M562.5,281.25v31.26c-10.38.11-20.86-.18-31.25-.01-.16,20.8.12,41.71-.01,62.51,20.8-.13,41.71.15,62.51-.01.17-10.39-.12-20.87-.01-31.26h31.26c-.17,10.4.12,20.88.01,31.27-10.39.04-20.87-.09-31.26-.01-.17,10.39.12,20.86,0,31.25h-31.25v31.25h-31.25v-31.25h-31.25v-31.25h-31.25v-31.25h31.25v-31.25c10.39-.12,20.86.17,31.25,0,.08-10.39-.05-20.87-.01-31.26,10.39-.11,20.87.18,31.26.01Z"/>
  <path class="cls-29" d="M156.25,468.75c4.84,10.53,4.81,20.71,0,31.25,5.38,10.25,5.3,20.97,0,31.25-10.39.05-20.86-.08-31.25,0,.16-20.8-.16-41.7,0-62.5,3.22-6.4,27.47-6.12,31.25,0Z"/>
  <path class="cls-25" d="M375,343.75c1.88-6.49,26.27-5.99,29.3,0-.1,5.92,6.62,26.11-1.94,30.28-5.71,2.78-48.32.89-58.6.97-6.4-3.22-6.12-27.47,0-31.25,3.22-6.4,27.47-6.12,31.25,0Z"/>
  <path class="cls-31" d="M343.75,281.25c.08-10.39-.06-20.86,0-31.25h31.25c.06,10.39-.08,20.86,0,31.25-10.28,5.3-21,5.38-31.25,0Z"/>
  <path class="cls-5" d="M281.25,281.25c6.4,3.22,6.12,27.47,0,31.25-10.25,5.38-20.97,5.3-31.25,0,.08-10.39-.06-20.87-.01-31.26,10.39-.05,20.87.09,31.26.01Z"/>
  <path class="cls-35" d="M312.5,281.25l3.91,2.23c1.11,6.44,1.76,26.25-3.91,29.02-10.53,4.84-20.71,4.81-31.25,0v-31.25c10.39-.08,20.86.05,31.25,0Z"/>
  <path class="cls-16" d="M343.75,281.25c4.79,10.54,4.84,20.73,0,31.25,3.22-6.4,27.47-6.12,31.25,0,6.4,3.22,6.12,27.47,0,31.25h-31.25c-3.84-10.37-3.84-20.88,0-31.25-10.37,3.84-20.88,3.84-31.25,0v-31.25c10.39-.05,20.86-.05,31.25,0Z"/>
  <path class="cls-13" d="M375,281.25c10.39.08,20.87-.06,31.26-.01,0,10.39-.03,20.87-.01,31.26l-2.23,3.91c-6.44,1.11-26.25,1.76-29.02-3.91-4.84-10.52-4.79-20.71,0-31.25Z"/>
  <path class="cls-3" d="M250,312.5c5.3,10.28,5.38,21,0,31.25-10.25,5.38-20.97,5.3-31.25,0,.08-10.39-.06-20.87-.01-31.26,10.39-.05,20.87.09,31.26.01Z"/>
  <path class="cls-12" d="M406.25,312.5c.02,10.45-1.79,21.7-1.95,31.25h-29.3v-31.25h31.25Z"/>
  <path class="cls-33" d="M218.75,343.75c5.3,10.28,5.38,21,0,31.25-3.22,6.4-27.47,6.12-31.25,0,.08-10.39-.06-20.87-.01-31.26,10.39-.05,20.87.09,31.26.01Z"/>
  <path class="cls-9" d="M312.5,343.75c6.4,3.22,6.12,27.47,0,31.25-10.39,0-20.86,0-31.25,0-4.79-10.54-4.84-20.73,0-31.25,10.36-3.86,20.88-3.84,31.25,0Z"/>
  <path class="cls-18" d="M343.75,343.75v31.25c-10.39.08-20.86,0-31.25,0v-31.25c3.22-6.4,27.47-6.12,31.25,0Z"/>
  <path class="cls-4" d="M187.5,375c5.3,10.28,5.38,21,0,31.25-3.22,6.4-27.47,6.12-31.25,0,.08-10.39-.06-20.87-.01-31.26,10.39.02,20.87,0,31.26.01Z"/>
  <path class="cls-24" d="M281.25,375c-.08,10.39.06,20.87.01,31.26-10.39.05-20.87-.09-31.26-.01-4.82-10.54-4.86-20.72,0-31.25,3.22-6.4,27.47-6.12,31.25,0Z"/>
  <path class="cls-11" d="M187.5,406.25c4.82,10.54,4.86,20.73,0,31.25-10.52,4.84-20.71,4.79-31.25,0,.05-10.39-.08-20.86,0-31.25h31.25Z"/>
  <path class="cls-40" d="M250,406.25c-.05,10.39.08,20.86,0,31.25-3.22,6.4-27.47,6.12-31.25,0-3.83-10.37-3.85-20.89,0-31.25,10.52-4.84,20.71-4.79,31.25,0Z"/>
  <path class="cls-2" d="M156.25,437.5c4.81,10.54,4.84,20.72,0,31.25h-31.25c.08-10.39-.05-20.87-.01-31.26,10.39-.05,20.87.09,31.26.01Z"/>
  <path class="cls-27" d="M250,437.5c-.08,10.39.06,20.87.01,31.26-10.39.05-20.87-.09-31.26-.01-4.82-10.54-4.86-20.73,0-31.25h31.25Z"/>
  <path class="cls-1" d="M218.75,468.75c-.05,10.39.08,20.86,0,31.25l-2.23,3.91c-6.44,1.11-26.25,1.76-29.02-3.91-4.82-10.54-4.86-20.73,0-31.25,10.52-4.84,20.71-4.79,31.25,0Z"/>
  <path class="cls-20" d="M218.75,500c-.08,10.39.06,20.87.01,31.26-10.39.05-20.87-.09-31.26-.01-5.3-10.28-5.38-21,0-31.25h31.25Z"/>
  <path class="cls-25" d="M125,531.25c-.08,10.39.06,20.86,0,31.25h-31.25v-31.25c10.39-.06,20.86.08,31.25,0Z"/>
  <path class="cls-30" d="M187.5,531.25c-.08,10.39.06,20.86,0,31.25h-31.25c-.06-10.39.08-20.86,0-31.25,10.25-5.38,20.98-5.3,31.25,0Z"/>
  <path class="cls-17" d="M812.5,156.25l3.91,2.23v25.01c9.6-1.08,18.72.25,27.34,4.01-6.4-3.22-6.12-27.47,0-31.25,10.39.05,20.86-.08,31.25,0,.08,10.38.08,20.87,0,31.25-10.38.08-20.87.08-31.25,0,0,10.39.08,20.86,0,31.25-20.8.16-41.7,0-62.5,0-.16-20.79-.16-41.71,0-62.5,10.39-.08,20.86.05,31.25,0Z"/>
  <path class="cls-15" d="M843.75,156.25v31.25c-10.39-.08-20.87.06-31.26.01v-31.26c10.4-.05,20.87-.05,31.26,0Z"/>
  <path class="cls-39" d="M187.5,468.75c-.03,10.39.05,20.86,0,31.25-3.22,6.4-27.47,6.12-31.25,0-.05-10.39,0-20.86,0-31.25,10.37-3.84,20.88-3.84,31.25,0Z"/>
  <path class="cls-28" d="M187.5,500c-.05,10.39.08,20.86,0,31.25-10.39.08-20.86-.05-31.25,0-.08-10.39.05-20.86,0-31.25h31.25Z"/>
  <path class="cls-32" d="M375,281.25c.08,10.39,0,20.86,0,31.25h-31.25c0-10.39-.08-20.86,0-31.25,10.39.05,20.86-.08,31.25,0Z"/>
  <path class="cls-14" d="M281.25,312.5c3.84,10.37,3.84,20.88,0,31.25-10.52,4.86-20.71,4.82-31.25,0,.05-10.39-.08-20.86,0-31.25,10.39-.08,20.86.05,31.25,0Z"/>
  <path class="cls-39" d="M312.5,312.5l3.91,2.23c1.11,6.44,1.76,26.25-3.91,29.02-10.39,0-20.86-.02-31.25,0,0-10.39,0-20.86,0-31.25,10.39-.05,20.86,0,31.25,0Z"/>
  <path class="cls-7" d="M343.75,312.5c0,10.39,0,20.86,0,31.25h-31.25v-31.25c10.39,0,20.86,0,31.25,0Z"/>
  <path class="cls-21" d="M250,343.75c4.82,10.54,4.86,20.72,0,31.25-.02,10.39.05,20.86,0,31.25-10.39.08-20.86,0-31.25,0-4.85-10.54-4.89-20.73,0-31.25.05-10.39-.08-20.86,0-31.25,10.39-.08,20.86.05,31.25,0Z"/>
  <path class="cls-6" d="M218.75,375c-.05,10.39.02,20.86,0,31.25-10.37,3.84-20.88,3.84-31.25,0,.05-10.39-.08-20.86,0-31.25h31.25Z"/>
  <path class="cls-36" d="M281.25,343.75c0,10.39.08,20.86,0,31.25h-31.25c.02-10.39-.05-20.86,0-31.25,10.39-.05,20.86.02,31.25,0Z"/>
  <path class="cls-19" d="M218.75,406.25c-.02,10.39.02,20.86,0,31.25-10.37,3.84-20.88,3.84-31.25,0,.02-10.39-.05-20.86,0-31.25,10.39,0,20.86,0,31.25,0Z"/>
  <path class="cls-38" d="M187.5,437.5c3.83,10.37,3.85,20.89,0,31.25-10.39,0-20.86,0-31.25,0,0-10.39-.05-20.86,0-31.25,10.39-.08,20.86,0,31.25,0Z"/>
  <path class="cls-32" d="M218.75,437.5c-.02,10.39.05,20.86,0,31.25-10.39.08-20.86,0-31.25,0,.03-10.39-.02-20.86,0-31.25,10.39,0,20.86,0,31.25,0Z"/>
</svg>