<svg width="128" height="128" viewBox="0 0 128 128" fill="none" xmlns="http://www.w3.org/2000/svg">
  <path d="M104 105.5C104 112.404 86.0914 118 64 118C41.9086 118 24 112.404 24 105.5V22.5H104V105.5Z" fill="#799CC5" />
  <path d="M104 85C104 91.9036 86.0914 97.5 64 97.5C41.9086 97.5 24 91.9036 24 85V60H104V85Z" fill="#A0BFE4" />
  <path d="M104 64C104 70.9036 86.0914 76.5 64 76.5C41.9086 76.5 24 70.9036 24 64V39H104V64Z" fill="#799CC5" />
  <path d="M104 43C104 49.9036 86.0914 55.5 64 55.5C41.9086 55.5 24 49.9036 24 43V24H104V43Z" fill="#A0BFE4" />
  <ellipse cx="64" cy="22.5" rx="40" ry="12.5" fill="#A77B17" />
  <ellipse cx="64" cy="22.5" rx="40" ry="12.5" fill="#496689" />
  <rect x="38" y="82" width="88" height="44" rx="8" fill="#FFCD54" />
  <path
    d="M58.5931 114.35C57.3097 114.35 56.0731 114.233 54.8831 114C53.7164 113.79 52.6314 113.475 51.6281 113.055C50.6481 112.635 49.7731 112.133 49.0031 111.55L50.3681 108.015C51.1381 108.552 51.9431 109.018 52.7831 109.415C53.6464 109.788 54.5564 110.08 55.5131 110.29C56.4931 110.477 57.5197 110.57 58.5931 110.57C60.4364 110.57 61.7781 110.267 62.6181 109.66C63.4581 109.03 63.8781 108.225 63.8781 107.245C63.8781 106.708 63.7497 106.253 63.4931 105.88C63.2364 105.483 62.8164 105.145 62.2331 104.865C61.6497 104.585 60.8797 104.352 59.9231 104.165L56.0731 103.36C53.8564 102.893 52.1997 102.112 51.1031 101.015C50.0297 99.895 49.4931 98.425 49.4931 96.605C49.4931 95.065 49.9014 93.7233 50.7181 92.58C51.5347 91.4367 52.6664 90.55 54.1131 89.92C55.5597 89.29 57.2281 88.975 59.1181 88.975C60.2381 88.975 61.3114 89.0917 62.3381 89.325C63.3881 89.535 64.3447 89.8617 65.2081 90.305C66.0947 90.725 66.8647 91.2383 67.5181 91.845L66.1531 95.205C65.1731 94.3883 64.0997 93.7817 62.9331 93.385C61.7664 92.965 60.4831 92.755 59.0831 92.755C58.0097 92.755 57.0881 92.9067 56.3181 93.21C55.5481 93.5133 54.9531 93.945 54.5331 94.505C54.1364 95.0417 53.9381 95.6833 53.9381 96.43C53.9381 97.27 54.2181 97.9467 54.7781 98.46C55.3381 98.95 56.2947 99.335 57.6481 99.615L61.4631 100.42C63.7731 100.91 65.4881 101.68 66.6081 102.73C67.7514 103.78 68.3231 105.18 68.3231 106.93C68.3231 108.4 67.9264 109.695 67.1331 110.815C66.3397 111.935 65.2081 112.81 63.7381 113.44C62.2914 114.047 60.5764 114.35 58.5931 114.35ZM89.9131 121.455L86.5181 115.96C86.1915 115.423 85.7481 115.015 85.1881 114.735C84.6515 114.478 83.9865 114.35 83.1931 114.35L86.6581 112.985C87.3815 112.985 88.0115 113.067 88.5481 113.23C89.0848 113.393 89.5631 113.662 89.9831 114.035C90.4031 114.408 90.7998 114.922 91.1731 115.575L93.7281 119.635L89.9131 121.455ZM83.2281 114.35C81.4315 114.35 79.7981 114.058 78.3281 113.475C76.8815 112.868 75.6331 112.005 74.5831 110.885C73.5565 109.765 72.7631 108.423 72.2031 106.86C71.6431 105.297 71.3631 103.558 71.3631 101.645C71.3631 99.7083 71.6431 97.97 72.2031 96.43C72.7631 94.8667 73.5565 93.5367 74.5831 92.44C75.6331 91.32 76.8815 90.4683 78.3281 89.885C79.7981 89.2783 81.4315 88.975 83.2281 88.975C85.0248 88.975 86.6465 89.2783 88.0931 89.885C89.5631 90.4683 90.8115 91.3083 91.8381 92.405C92.8881 93.5017 93.6931 94.8317 94.2531 96.395C94.8131 97.935 95.0931 99.6733 95.0931 101.61C95.0931 103.547 94.8131 105.297 94.2531 106.86C93.6931 108.423 92.8881 109.765 91.8381 110.885C90.8115 112.005 89.5631 112.868 88.0931 113.475C86.6465 114.058 85.0248 114.35 83.2281 114.35ZM83.2281 110.5C84.7448 110.5 86.0281 110.15 87.0781 109.45C88.1515 108.75 88.9681 107.735 89.5281 106.405C90.1115 105.075 90.4031 103.488 90.4031 101.645C90.4031 99.7783 90.1231 98.1917 89.5631 96.885C89.0031 95.555 88.1865 94.5517 87.1131 93.875C86.0398 93.175 84.7448 92.825 83.2281 92.825C81.7348 92.825 80.4515 93.175 79.3781 93.875C78.3048 94.5517 77.4765 95.555 76.8931 96.885C76.3331 98.1917 76.0531 99.7783 76.0531 101.645C76.0531 103.488 76.3331 105.075 76.8931 106.405C77.4765 107.735 78.3048 108.75 79.3781 109.45C80.4515 110.15 81.7348 110.5 83.2281 110.5ZM99.6486 114V89.325H104.129V110.185H115.959V114H99.6486Z"
    fill="black" />
</svg>