<svg width="24" height="24" viewBox="0 0 24 24" fill="none" xmlns="http://www.w3.org/2000/svg">
<path opacity="0.2" d="M20.5 3.5H3.5C2.67157 3.5 2 4.17157 2 5V20C2 20.8284 2.67157 21.5 3.5 21.5H20.5C21.3284 21.5 22 20.8284 22 20V5C22 4.17157 21.3284 3.5 20.5 3.5Z" fill="black"/>
<path d="M20.5 3H3.5C2.67157 3 2 3.67157 2 4.5V19.5C2 20.3284 2.67157 21 3.5 21H20.5C21.3284 21 22 20.3284 22 19.5V4.5C22 3.67157 21.3284 3 20.5 3Z" fill="#313131"/>
<path opacity="0.1" d="M3.5 3C2.669 3 2 3.669 2 4.5V5C2 4.169 2.669 3.5 3.5 3.5H20.5C21.331 3.5 22 4.169 22 5V4.5C22 3.669 21.331 3 20.5 3H3.5Z" fill="white"/>
<path opacity="0.2" d="M15.5 11.5H10.5C10.2239 11.5 10 11.7239 10 12V13C10 13.2761 10.2239 13.5 10.5 13.5H15.5C15.7761 13.5 16 13.2761 16 13V12C16 11.7239 15.7761 11.5 15.5 11.5Z" fill="black"/>
<path d="M15.5 11H10.5C10.2239 11 10 11.2239 10 11.5V12.5C10 12.7761 10.2239 13 10.5 13H15.5C15.7761 13 16 12.7761 16 12.5V11.5C16 11.2239 15.7761 11 15.5 11Z" fill="#A6FDA9"/>
<path opacity="0.2" d="M7.85856 8.4527L4.15013 11.9567C3.9454 12.1501 3.9454 12.4637 4.15013 12.6572L4.89225 13.3584C5.09698 13.5518 5.42892 13.5518 5.63365 13.3584L9.34208 9.85444C9.54681 9.661 9.54681 9.34735 9.34208 9.15391L8.59996 8.4527C8.39523 8.25925 8.06329 8.25925 7.85856 8.4527Z" fill="black"/>
<path d="M7.86588 7.95173L4.15745 11.4557C3.95272 11.6492 3.95272 11.9628 4.15745 12.1563L4.89958 12.8575C5.10431 13.0509 5.43624 13.0509 5.64097 12.8575L9.3494 9.35346C9.55413 9.16002 9.55413 8.84638 9.3494 8.65294L8.60728 7.95173C8.40255 7.75828 8.07061 7.75828 7.86588 7.95173Z" fill="#52AC63"/>
<path opacity="0.2" d="M7.86588 10.5503L4.15745 7.04633C3.95272 6.85289 3.95272 6.53925 4.15745 6.34581L4.89958 5.6446C5.10431 5.45115 5.43624 5.45115 5.64097 5.6446L9.3494 9.14859C9.55413 9.34203 9.55413 9.65567 9.3494 9.84911L8.60728 10.5503C8.40255 10.7438 8.07061 10.7438 7.86588 10.5503Z" fill="black"/>
<path d="M7.85856 10.0489L4.15013 6.54487C3.9454 6.35142 3.9454 6.03779 4.15013 5.84434L4.89225 5.14313C5.09698 4.94969 5.42892 4.94969 5.63365 5.14313L9.34208 8.64712C9.54681 8.84057 9.54681 9.1542 9.34208 9.34765L8.59996 10.0489C8.39523 10.2423 8.06329 10.2423 7.85856 10.0489Z" fill="#A6FDA9"/>
</svg>
