<svg width="128" height="128" viewBox="0 0 128 128" fill="none" xmlns="http://www.w3.org/2000/svg">
<circle cx="64" cy="64" r="60" fill="#FFE240"/>
<path d="M123.966 66C123.988 66.664 124 67.3307 124 68C124 101.137 97.1371 128 64 128C30.8629 128 4 101.137 4 68C4 67.3307 4.01146 66.664 4.0332 66C5.08819 98.2112 31.5322 124 64 124C96.4678 124 122.911 98.2112 123.966 66Z" fill="black" fill-opacity="0.39"/>
<path d="M90 97C80 77 48 77 38 97" stroke="#4D3914" stroke-width="8" stroke-linecap="round"/>
<path d="M93.874 31.126C95.3753 32.6274 95.3753 35.0616 93.874 36.563L88.437 42L93.874 47.437C95.3753 48.9384 95.3753 51.3726 93.874 52.874C92.3726 54.3753 89.9384 54.3753 88.437 52.874L83 47.437L77.563 52.874C76.0616 54.3753 73.6274 54.3753 72.126 52.874C70.6247 51.3726 70.6247 48.9384 72.126 47.437L77.563 42L72.126 36.563C70.6247 35.0616 70.6247 32.6274 72.126 31.126C73.6274 29.6247 76.0616 29.6247 77.563 31.126L83 36.563L88.437 31.126C89.9384 29.6247 92.3726 29.6247 93.874 31.126Z" fill="#4D3914"/>
<path d="M53.874 31.126C55.3753 32.6274 55.3753 35.0616 53.874 36.563L48.437 42L53.874 47.437C55.3753 48.9384 55.3753 51.3726 53.874 52.874C52.3726 54.3753 49.9384 54.3753 48.437 52.874L43 47.437L37.563 52.874C36.0616 54.3753 33.6274 54.3753 32.126 52.874C30.6247 51.3726 30.6247 48.9384 32.126 47.437L37.563 42L32.126 36.563C30.6247 35.0616 30.6247 32.6274 32.126 31.126C33.6274 29.6247 36.0616 29.6247 37.563 31.126L43 36.563L48.437 31.126C49.9384 29.6247 52.3726 29.6247 53.874 31.126Z" fill="#4D3914"/>
<path d="M4.03418 66C4.01243 65.336 4 64.6693 4 64C4 30.8629 30.8629 4.00001 64 4.00001C97.1371 4 124 30.8629 124 64C124 64.6693 123.989 65.336 123.967 66C122.912 33.7888 96.4678 8 64 8.00001C31.5322 8.00001 5.08918 33.7888 4.03418 66Z" fill="white" fill-opacity="0.25"/>
</svg>
