<svg width="128" height="128" viewBox="0 0 128 128" fill="none" xmlns="http://www.w3.org/2000/svg">
<circle cx="64" cy="64" r="60" fill="#FFE240"/>
<path d="M123.966 66C123.988 66.664 124 67.3307 124 68C124 101.137 97.1371 128 64 128C30.8629 128 4 101.137 4 68C4 67.3307 4.01146 66.664 4.0332 66C5.08819 98.2112 31.5322 124 64 124C96.4678 124 122.911 98.2112 123.966 66Z" fill="black" fill-opacity="0.39"/>
<path d="M4.03418 66C4.01243 65.336 4 64.6693 4 64C4 30.8629 30.8629 4.00001 64 4.00001C97.1371 4 124 30.8629 124 64C124 64.6693 123.989 65.336 123.967 66C122.912 33.7888 96.4678 8 64 8.00001C31.5322 8.00001 5.08918 33.7888 4.03418 66Z" fill="white" fill-opacity="0.25"/>
<circle cx="43" cy="42" r="8" fill="#4D3914"/>
<circle cx="83" cy="42" r="8" fill="#4D3914"/>
<circle cx="64" cy="87" r="13" fill="#FFE240" stroke="#4D3914" stroke-width="8"/>
</svg>
