<svg width="24" height="24" viewBox="0 0 24 24" fill="none" xmlns="http://www.w3.org/2000/svg">
  <path opacity="0.2"
    d="M17 4.5H7C6.44772 4.5 6 4.94772 6 5.5V19.5C6 20.0523 6.44772 20.5 7 20.5H17C17.5523 20.5 18 20.0523 18 19.5V5.5C18 4.94772 17.5523 4.5 17 4.5Z"
    fill="black" />
  <path
    d="M17 4H7C6.44772 4 6 4.44772 6 5V19C6 19.5523 6.44772 20 7 20H17C17.5523 20 18 19.5523 18 19V5C18 4.44772 17.5523 4 17 4Z"
    fill="#8E8E8E" />
  <path opacity="0.2"
    d="M21 2.5H3C2.44772 2.5 2 2.94772 2 3.5V17.5C2 18.0523 2.44772 18.5 3 18.5H21C21.5523 18.5 22 18.0523 22 17.5V3.5C22 2.94772 21.5523 2.5 21 2.5Z"
    fill="black" />
  <path d="M2 16V17C2 17.554 2.446 18 3 18H21C21.554 18 22 17.554 22 17V16H2Z" fill="#3F3F3F" />
  <path d="M3 2C2.446 2 2 2.446 2 3V16H22V3C22 2.446 21.554 2 21 2H3Z" fill="#00BBFF" />
  <path opacity="0.2"
    d="M3 2C2.446 2 2 2.446 2 3V3.5C2 2.946 2.446 2.5 3 2.5H21C21.554 2.5 22 2.946 22 3.5V3C22 2.446 21.554 2 21 2H3Z"
    fill="white" />
  <path opacity="0.2" d="M22 16H2V16.5H22V16Z" fill="black" />
  <path
    d="M11.6321 4.26454C11.8367 4.16125 12.0782 4.16113 12.2827 4.26442C12.4081 4.32771 12.5123 4.42633 12.5826 4.54796L16.3948 11.1511C16.4721 11.285 16.4263 11.4563 16.2924 11.5336C16.1818 11.5974 16.0405 11.5594 15.9768 11.4487L12.8362 5.99116C12.7378 5.82014 12.5915 5.68154 12.4155 5.59236C12.1274 5.44647 11.7871 5.44645 11.4991 5.59236C11.323 5.68153 11.1768 5.82014 11.0784 5.99116L7.9374 11.449C7.87386 11.5594 7.73275 11.5973 7.6224 11.5336C7.48849 11.4563 7.44269 11.285 7.51999 11.1511L11.3324 4.54783C11.4026 4.42626 11.5068 4.32784 11.6321 4.26454Z"
    fill="white" />
  <path fill-rule="evenodd" clip-rule="evenodd"
    d="M12.2828 6.11115C12.0782 6.00787 11.8367 6.00787 11.6322 6.11116C11.5068 6.17446 11.4026 6.27295 11.3324 6.39456L7.59003 12.8766C7.47405 13.0775 7.54288 13.3343 7.74376 13.4503L8.47123 13.8703C8.6721 13.9863 8.92898 13.9175 9.04495 13.7166L11.8362 8.88192C11.8901 8.78858 12.0248 8.78858 12.0787 8.88192L14.87 13.7166C14.986 13.9175 15.2429 13.9863 15.4438 13.8703L16.1712 13.4503C16.3721 13.3343 16.4409 13.0775 16.325 12.8766L12.5826 6.39459C12.5124 6.27296 12.4082 6.17446 12.2828 6.11115Z"
    fill="white" />
</svg>