<svg width="24" height="24" viewBox="0 0 24 24" fill="none" xmlns="http://www.w3.org/2000/svg">
  <g clip-path="url(#clip0_159_149)">
    <g opacity="0.2">
      <path
        d="M12 2.5C11.8204 2.5 11.6404 2.52919 11.4687 2.58826L4.06519 5.13408C3.43109 5.35216 3 5.9463 3 6.60217C3 9.40982 3.7401 12.53 5.03802 15.3157C6.09164 17.5774 7.97551 20.6726 11.269 22.3269C11.4972 22.4414 11.7494 22.5 12 22.5C12.2506 22.5 12.5028 22.4414 12.7309 22.3269C16.0242 20.6723 17.9073 17.577 18.9611 15.3157C18.9614 15.3157 18.9617 15.3157 18.962 15.3157C20.2598 12.5298 21 9.40946 21 6.60217C21 5.9463 20.5689 5.35216 19.9348 5.13408C19.9342 5.13408 19.9336 5.13408 19.9331 5.13408L12.5313 2.58826C12.3594 2.52906 12.1798 2.5 12 2.5Z"
        fill="black" />
    </g>
    <path
      d="M12 2C11.8204 2 11.6404 2.02919 11.4687 2.08826L4.06519 4.63408C3.43109 4.85216 3 5.4463 3 6.10217C3 8.90982 3.7401 12.03 5.03802 14.8157C6.09164 17.0774 7.97551 20.1726 11.269 21.8269C11.4972 21.9414 11.7494 22 12 22C12.2506 22 12.5028 21.9414 12.7309 21.8269C16.0242 20.1723 17.9073 17.077 18.9611 14.8157C18.9614 14.8157 18.9617 14.8157 18.962 14.8157C20.2598 12.0298 21 8.90946 21 6.10217C21 5.4463 20.5689 4.85216 19.9348 4.63408C19.9342 4.63408 19.9336 4.63408 19.9331 4.63408L12.5313 2.08826C12.3594 2.02906 12.1798 2 12 2Z"
      fill="#FF9F05" />
    <g opacity="0.2">
      <path
        d="M12 2C11.8204 2 11.6405 2.02883 11.4688 2.08789L4.06543 4.63379C3.43134 4.85187 3 5.44667 3 6.10254C3 8.91019 3.74017 12.0298 5.03809 14.8154C6.09171 17.0771 7.97599 20.1729 11.2695 21.8271C11.4977 21.9416 11.7494 22 12 22V2Z"
        fill="white" />
    </g>
    <path fill-rule="evenodd" clip-rule="evenodd"
      d="M3.9502 12C4.24885 12.9591 4.61343 13.9051 5.03758 14.8154C6.09121 17.0771 7.97549 20.1729 11.269 21.8271C11.4972 21.9416 11.7489 22 11.9995 22V12H3.9502Z"
      fill="#008DFF" />
    <path fill-rule="evenodd" clip-rule="evenodd"
      d="M20.0493 12C19.7507 12.9591 19.3861 13.9051 18.9619 14.8154C17.9083 17.0771 16.024 20.1729 12.7305 21.8271C12.5023 21.9416 12.2506 22 12 22V12H20.0493Z"
      fill="#FFB237" />
    <path fill-rule="evenodd" clip-rule="evenodd"
      d="M11.4688 2.08789C11.6405 2.02883 11.8204 2 12 2V12H3.9507C3.33545 10.0242 3 7.99267 3 6.10254C3 5.44667 3.43134 4.85187 4.06543 4.63379L11.4688 2.08789Z"
      fill="#E85454" />
    <path fill-rule="evenodd" clip-rule="evenodd"
      d="M12.5312 2.08789C12.3595 2.02883 12.1796 2 12 2V12H20.0493C20.6645 10.0242 21 7.99267 21 6.10254C21 5.44667 20.5687 4.85187 19.9346 4.63379L12.5312 2.08789Z"
      fill="#55B959" />
    <g opacity="0.2">
      <path
        d="M12 2C11.8204 2 11.6405 2.02883 11.4688 2.08789L4.06543 4.63379C3.43134 4.85187 3 5.44667 3 6.10254C3 6.21994 3.01989 6.34444 3.02246 6.46289C3.07996 5.86512 3.47787 5.33586 4.06543 5.13379L11.4688 2.58789C11.6405 2.52883 11.8204 2.5 12 2.5C12.1798 2.5 12.3594 2.52869 12.5312 2.58789L19.9326 5.13379H19.9346C20.5221 5.33586 20.92 5.86512 20.9775 6.46289C20.9801 6.3444 21 6.21998 21 6.10254C21 5.44667 20.5687 4.85187 19.9346 4.63379H19.9326L12.5312 2.08789C12.3594 2.02869 12.1798 2 12 2Z"
        fill="white" />
    </g>
  </g>
  <defs>
    <clipPath id="clip0_159_149">
      <rect width="24" height="24" fill="white" />
    </clipPath>
  </defs>
</svg>