<svg width="235" height="235" viewBox="0 0 235 235" fill="none" xmlns="http://www.w3.org/2000/svg">
  <rect width="235" height="235" rx="50" fill="url(#paint0_linear_187_24)" />
  <path
    d="M207.617 85.4891C216.321 109.975 183.03 144.156 133.26 161.835C83.4892 179.514 36.0865 173.996 27.3828 149.511C18.679 125.025 51.9701 90.8441 101.74 73.165C151.511 55.4859 198.913 61.0036 207.617 85.4891Z"
    stroke="#DDDDDD" stroke-width="12" />
  <path
    d="M190.873 178.821C174.199 198.757 127.833 187.464 87.3102 153.597C46.7875 119.73 27.4536 76.1148 44.1268 56.1789C60.8001 36.243 107.167 47.5361 147.689 81.4028C188.212 115.269 207.546 158.885 190.873 178.821Z"
    stroke="#DDDDDD" stroke-width="12" />
  <path
    d="M100.814 211.637C75.2179 207.103 61.9387 161.282 71.154 109.291C80.3694 57.3006 108.589 18.8293 134.185 23.3629C159.781 27.8965 173.061 73.7184 163.845 125.709C154.63 177.699 126.41 216.171 100.814 211.637Z"
    stroke="#DDDDDD" stroke-width="12" />
  <defs>
    <linearGradient id="paint0_linear_187_24" x1="117.5" y1="0" x2="117.5" y2="235" gradientUnits="userSpaceOnUse">
      <stop stop-color="#3F2F3C" />
      <stop offset="0.563221" stop-color="#373249" />
      <stop offset="0.71" stop-color="#323451" />
      <stop offset="1" stop-color="#33385E" />
    </linearGradient>
  </defs>
</svg>