<svg width="16" height="16" viewBox="0 0 16 16" fill="none" xmlns="http://www.w3.org/2000/svg">
  <path
    d="M13.2 2H2.8C2.35817 2 2 2.36892 2 2.824V15.176C2 15.6311 2.35817 16 2.8 16H13.2C13.6418 16 14 15.6311 14 15.176V2.824C14 2.36892 13.6418 2 13.2 2Z"
    fill="#5C8FCC" />
  <path d="M10 0H6V1.6H10V0Z" fill="#7FB8FB" />
  <path
    d="M14.222 1H1.778C1.34832 1 1 1.33579 1 1.75V3.25C1 3.66421 1.34832 4 1.778 4H14.222C14.6517 4 15 3.66421 15 3.25V1.75C15 1.33579 14.6517 1 14.222 1Z"
    fill="#7FB8FB" />
  <path opacity="0.3" d="M8 7V13" stroke="black" stroke-width="2" stroke-linecap="round" />
  <path opacity="0.3" d="M5 7V13" stroke="black" stroke-width="2" stroke-linecap="round" />
  <path opacity="0.3" d="M11 7V13" stroke="black" stroke-width="2" stroke-linecap="round" />
</svg>