<svg width="70" height="70" viewBox="0 0 70 70" fill="none" xmlns="http://www.w3.org/2000/svg">
  <path
    d="M32.372 1.17291C33.8331 0.435132 35.5582 0.435273 37.0194 1.17291C37.9149 1.62501 38.6594 2.32863 39.161 3.19732L66.3925 50.3633C66.9447 51.3199 66.6166 52.5435 65.66 53.0958C64.8701 53.5514 63.8604 53.2798 63.4056 52.4895L40.9725 13.5069C40.2695 12.2852 39.2251 11.2942 37.9677 10.6573C35.9102 9.61525 33.4791 9.61511 31.4218 10.6573C30.1646 11.2941 29.1209 12.2845 28.4178 13.5059L5.98095 52.4919C5.52725 53.2802 4.5199 53.5507 3.7323 53.0958C2.77571 52.5435 2.44759 51.3199 2.99988 50.3633L30.2313 3.19732C30.7328 2.32875 31.4767 1.62501 32.372 1.17291Z"
    fill="#6CB8D6" />
  <path fill-rule="evenodd" clip-rule="evenodd"
    d="M37.0198 13.3646C35.5585 12.6269 33.8337 12.6269 32.3724 13.3647V13.3647C31.477 13.8168 30.7329 14.5203 30.2314 15.389L3.50001 61.689C2.67158 63.1239 3.1632 64.9586 4.59809 65.7871L9.79426 68.7871C11.2291 69.6155 13.0639 69.1239 13.8923 67.689L33.83 33.1558C34.2149 32.4891 35.1772 32.4891 35.5621 33.1558L55.5 67.689C56.3285 69.1239 58.1632 69.6155 59.5981 68.7871L64.7943 65.7871C66.2291 64.9586 66.7208 63.1239 65.8923 61.689L39.1611 15.3892C38.6595 14.5204 37.9153 13.8168 37.0198 13.3646V13.3646Z"
    fill="url(#paint0_linear_1125_30)" />
  <defs>
    <linearGradient id="paint0_linear_1125_30" x1="34.6962" y1="12.1914" x2="34.6962" y2="70.2871"
      gradientUnits="userSpaceOnUse">
      <stop stop-color="#00BBFF" />
      <stop offset="1" stop-color="#1B7CA0" />
    </linearGradient>
  </defs>
</svg>