<svg width="1366" height="768" viewBox="0 0 1366 768" fill="none" xmlns="http://www.w3.org/2000/svg">
<rect width="1366" height="768" fill="#221111"/>
<path opacity="0.3" d="M670.624 395.208C670.112 391.88 670.325 388.979 671.264 386.504C672.288 384.029 673.653 381.853 675.36 379.976C677.152 378.099 678.987 376.392 680.864 374.856C682.741 373.32 684.32 371.827 685.6 370.376C686.88 368.925 687.52 367.389 687.52 365.768C687.52 363.464 686.709 361.843 685.088 360.904C683.552 359.88 681.803 359.368 679.84 359.368C677.451 359.368 675.36 359.88 673.568 360.904C671.776 361.928 669.941 363.208 668.064 364.744L656.032 353.736C659.189 350.152 662.901 347.251 667.168 345.032C671.52 342.813 676.256 341.704 681.376 341.704C686.325 341.704 690.848 342.472 694.944 344.008C699.04 345.459 702.325 347.763 704.8 350.92C707.275 353.992 708.512 358.003 708.512 362.952C708.512 366.28 707.829 369.096 706.464 371.4C705.184 373.704 703.563 375.752 701.6 377.544C699.637 379.251 697.717 380.915 695.84 382.536C693.963 384.157 692.427 385.992 691.232 388.04C690.037 390.003 689.568 392.392 689.824 395.208H670.624ZM680.608 430.536C676.512 430.536 673.141 429.213 670.496 426.568C667.851 423.837 666.528 420.424 666.528 416.328C666.528 412.232 667.851 408.904 670.496 406.344C673.141 403.699 676.512 402.376 680.608 402.376C684.704 402.376 688.075 403.699 690.72 406.344C693.365 408.904 694.688 412.232 694.688 416.328C694.688 420.424 693.365 423.837 690.72 426.568C688.075 429.213 684.704 430.536 680.608 430.536Z" fill="#FFAAAA" fill-opacity="0.666667"/>
</svg>
