<svg width="1366" height="768" viewBox="0 0 1366 768" fill="none" xmlns="http://www.w3.org/2000/svg">
  <g clip-path="url(#clip0_985_63)">
    <rect width="1366" height="768" fill="#111100" />
    <path
      d="M922 -108.5V141.5M922 391.5H922.625M1530.12 454L1030.12 -421C1019.22 -440.237 1003.41 -456.238 984.307 -467.371C965.203 -478.503 943.486 -484.369 921.375 -484.369C899.263 -484.369 877.547 -478.503 858.442 -467.371C839.337 -456.238 823.527 -440.237 812.625 -421L312.625 454C301.605 473.085 295.827 494.744 295.875 516.782C295.924 538.82 301.798 560.453 312.903 579.489C324.007 598.525 339.946 614.287 359.106 625.177C378.265 636.067 399.963 641.698 422 641.5H1422C1443.93 641.477 1465.47 635.685 1484.45 624.705C1503.44 613.725 1519.2 597.943 1530.16 578.944C1541.11 559.946 1546.88 538.399 1546.87 516.468C1546.87 494.537 1541.09 472.993 1530.12 454Z"
      stroke="white" stroke-opacity="0.0666667" stroke-width="93.75" stroke-linecap="round" stroke-linejoin="round" />
  </g>
  <defs>
    <clipPath id="clip0_985_63">
      <rect width="1366" height="768" fill="white" />
    </clipPath>
  </defs>
</svg>