<svg width="272" height="272" viewBox="0 0 272 272" fill="none" xmlns="http://www.w3.org/2000/svg">
  <path opacity="0.2"
    d="M56.6666 28.3334C50.3879 28.3334 45.3333 33.388 45.3333 39.6667V243.667C45.3333 249.945 50.3879 255 56.6666 255H215.333C221.612 255 226.667 249.945 226.667 243.667V96.3334L158.667 28.3334H56.6666Z"
    fill="black" />
  <path
    d="M56.6666 22.6666C50.3879 22.6666 45.3333 27.7213 45.3333 34V238C45.3333 244.279 50.3879 249.333 56.6666 249.333H215.333C221.612 249.333 226.667 244.279 226.667 238V90.6666L170 79.3333L158.667 22.6666H56.6666Z"
    fill="#799CC5" />
  <path opacity="0.2"
    d="M56.6666 22.6666C50.3879 22.6666 45.3333 27.7213 45.3333 34V39.6666C45.3333 33.388 50.3879 28.3333 56.6666 28.3333H158.667V22.6666H56.6666Z"
    fill="white" />
  <path
    d="M192.593 194.407L192.588 194.635C192.199 204.246 167.145 212 136.296 212C105.205 212 80.0005 204.123 80.0005 194.407V77.5927H192.593V194.407Z"
    fill="#496689" />
  <path
    d="M192.594 165.556L192.589 165.784C192.198 175.395 167.145 183.149 136.297 183.149C105.449 183.149 80.3951 175.395 80.0046 165.784L80.0007 165.556V130.37H192.594V165.556Z"
    fill="#34475E" />
  <path
    d="M192.594 136L192.589 136.228C192.198 145.839 167.145 153.593 136.297 153.593C105.449 153.593 80.3949 145.839 80.0046 136.228L80.0007 136V100.815H192.594V136Z"
    fill="#496689" />
  <path
    d="M192.593 106.399C192.593 106.414 192.594 106.43 192.594 106.445C192.593 116.161 167.388 124.038 136.297 124.038C105.449 124.038 80.3954 116.284 80.0049 106.672L80 106.445V79.7037H192.593V106.399Z"
    fill="#34475E" />
  <ellipse cx="136.297" cy="77.5926" rx="56.2963" ry="17.5926" fill="#A77B17" />
  <ellipse cx="136.297" cy="77.5926" rx="56.2963" ry="17.5926" fill="#496689" />
  <path opacity="0.2" d="M226.667 96.3334L158.667 28.3334V85C158.667 91.2787 163.721 96.3334 170 96.3334H226.667Z"
    fill="black" />
  <path d="M226.667 90.6666L158.667 22.6666V79.3333C158.667 85.612 163.721 90.6666 170 90.6666H226.667Z"
    fill="#A0BFE4" />
</svg>