<svg width="24" height="24" viewBox="0 0 24 24" fill="none" xmlns="http://www.w3.org/2000/svg">
<path opacity="0.2" d="M5 2.5C4.446 2.5 4 2.946 4 3.5V21.5C4 22.054 4.446 22.5 5 22.5H19C19.554 22.5 20 22.054 20 21.5V8.5L14.5 8L14 2.5H5Z" fill="black"/>
<path d="M5 2C4.446 2 4 2.446 4 3V21C4 21.554 4.446 22 5 22H19C19.554 22 20 21.554 20 21V8L14.5 7.5L14 2H5Z" fill="#B36CFF"/>
<path opacity="0.2" d="M5 2C4.446 2 4 2.446 4 3V3.5C4 2.946 4.446 2.5 5 2.5H14L19.5 8H20L14 2H5Z" fill="white"/>
<path opacity="0.2" d="M14 2.5V7.5C14 8.0523 14.4477 8.5 15 8.5H20L14 2.5Z" fill="black"/>
<path d="M14 2V7C14 7.5523 14.4477 8 15 8H20L14 2Z" fill="#CE9FFF"/>
<g clip-path="url(#clip0_416_38)">
<path opacity="0.2" d="M8.79957 8.50021C8.69545 8.49778 8.59189 8.5162 8.49498 8.55439C8.39807 8.59258 8.30978 8.64977 8.23528 8.72259C8.16079 8.79542 8.1016 8.88241 8.06119 8.97845C8.02079 9.07449 7.99998 9.17764 8 9.28185V16.7185C8.00004 16.8557 8.03617 16.9905 8.10475 17.1093C8.17334 17.2281 8.27196 17.3267 8.39072 17.3953C8.50947 17.4639 8.64418 17.5 8.7813 17.5C8.91842 17.5 9.05313 17.4639 9.17189 17.3953L15.6096 13.677C15.7283 13.6084 15.8269 13.5097 15.8954 13.3909C15.9639 13.2721 16 13.1373 16 13.0002C16 12.863 15.9639 12.7283 15.8954 12.6095C15.8269 12.4907 15.7283 12.392 15.6096 12.3234L9.17189 8.60504C9.05852 8.53943 8.9305 8.50338 8.79957 8.50021Z" fill="black"/>
<path d="M8.79957 8.00021C8.69545 7.99778 8.59189 8.0162 8.49498 8.05439C8.39807 8.09258 8.30978 8.14977 8.23528 8.22259C8.16079 8.29542 8.1016 8.38241 8.06119 8.47845C8.02079 8.57449 7.99998 8.67764 8 8.78184V16.2185C8.00004 16.3557 8.03617 16.4905 8.10475 16.6093C8.17334 16.7281 8.27196 16.8267 8.39072 16.8953C8.50947 16.9639 8.64418 17 8.7813 17C8.91842 17 9.05313 16.9639 9.17189 16.8953L15.6096 13.177C15.7283 13.1084 15.8269 13.0097 15.8954 12.8909C15.9639 12.7721 16 12.6373 16 12.5002C16 12.363 15.9639 12.2283 15.8954 12.1095C15.8269 11.9907 15.7283 11.892 15.6096 11.8234L9.17189 8.10504C9.05852 8.03943 8.9305 8.00338 8.79957 8.00021Z" fill="white"/>
</g>
<g opacity="0.5">
<path d="M13 18H17V19H13V18Z" fill="black"/>
<path d="M11 18H12V19H11V18Z" fill="black"/>
<path d="M13 16H17V17H13V16Z" fill="black"/>
<path d="M11 16H12V17H11V16Z" fill="black"/>
<path d="M13 14H17V15H13V14Z" fill="black"/>
<path d="M11 14H12V15H11V14Z" fill="black"/>
</g>
<defs>
<clipPath id="clip0_416_38">
<rect width="8" height="10" fill="white" transform="translate(8 8)"/>
</clipPath>
</defs>
</svg>
