<svg width="100" height="100" viewBox="0 0 100 100" fill="none" xmlns="http://www.w3.org/2000/svg">
<path d="M47.3722 16.1737C48.8334 15.4359 50.5584 15.435 52.0196 16.1727C52.9152 16.6249 53.6596 17.3293 54.1612 18.1981L81.3917 65.3631C81.944 66.3197 81.6167 67.5432 80.6603 68.0956C79.8704 68.5512 78.8607 68.2796 78.4058 67.4893L55.9728 28.5067C55.2698 27.2851 54.2252 26.295 52.9679 25.6581C50.9104 24.6159 48.4794 24.6159 46.422 25.6581C45.1647 26.295 44.1201 27.2851 43.4171 28.5067L20.9816 67.4909C20.5276 68.2798 19.5198 68.5506 18.7316 68.0956C17.7751 67.5432 17.4479 66.3197 18.0001 65.3631L45.2316 18.1971C45.7331 17.3287 46.477 16.6257 47.3722 16.1737Z" fill="#008BBE"/>
<path fill-rule="evenodd" clip-rule="evenodd" d="M52.0198 29.3646C50.5585 28.6269 48.8337 28.6269 47.3724 29.3647C46.477 29.8168 45.7329 30.5203 45.2314 31.389L18.5 77.689C17.6716 79.1239 18.1632 80.9586 19.5981 81.7871L24.7943 84.7871C26.2291 85.6155 28.0639 85.1239 28.8923 83.689L48.83 49.1558C49.2149 48.4891 50.1772 48.4891 50.5621 49.1558L70.5 83.689C71.3285 85.1239 73.1632 85.6155 74.5981 84.7871L79.7943 81.7871C81.2291 80.9586 81.7208 79.1239 80.8923 77.689L54.1611 31.3892C53.6595 30.5204 52.9153 29.8168 52.0198 29.3646Z" fill="#00BBFF"/>
<rect x="37" y="66" width="58" height="29" rx="8" fill="#FFCD54"/>
<path d="M46.0114 86V74.3636H50.6705C51.5265 74.3636 52.2405 74.4905 52.8125 74.7443C53.3845 74.9981 53.8144 75.3504 54.1023 75.8011C54.3902 76.2481 54.5341 76.7633 54.5341 77.3466C54.5341 77.8011 54.4432 78.2008 54.2614 78.5455C54.0795 78.8864 53.8295 79.1667 53.5114 79.3864C53.197 79.6023 52.8371 79.7557 52.4318 79.8466V79.9602C52.875 79.9792 53.2898 80.1042 53.6761 80.3352C54.0663 80.5663 54.3826 80.8902 54.625 81.3068C54.8674 81.7197 54.9886 82.2121 54.9886 82.7841C54.9886 83.4015 54.8352 83.9527 54.5284 84.4375C54.2254 84.9186 53.7765 85.2992 53.1818 85.5795C52.5871 85.8598 51.8542 86 50.983 86H46.0114ZM48.4716 83.9886H50.4773C51.1629 83.9886 51.6629 83.858 51.9773 83.5966C52.2917 83.3314 52.4489 82.9792 52.4489 82.5398C52.4489 82.2178 52.3712 81.9337 52.2159 81.6875C52.0606 81.4413 51.839 81.2481 51.5511 81.108C51.267 80.9678 50.928 80.8977 50.5341 80.8977H48.4716V83.9886ZM48.4716 79.233H50.2955C50.6326 79.233 50.9318 79.1742 51.1932 79.0568C51.4583 78.9356 51.6667 78.7652 51.8182 78.5455C51.9735 78.3258 52.0511 78.0625 52.0511 77.7557C52.0511 77.3352 51.9015 76.9962 51.6023 76.7386C51.3068 76.4811 50.8864 76.3523 50.3409 76.3523H48.4716V79.233ZM56.5895 86V74.3636H64.4304V76.392H59.0497V79.1648H64.027V81.1932H59.0497V83.9716H64.4531V86H56.5895ZM65.9432 76.392V74.3636H75.5V76.392H71.9375V86H69.5057V76.392H65.9432ZM77.6577 86H75.0213L79.0384 74.3636H82.2088L86.2202 86H83.5838L80.669 77.0227H80.5781L77.6577 86ZM77.4929 81.4261H83.7202V83.3466H77.4929V81.4261Z" fill="black"/>
</svg>
