<svg width="100" height="100" viewBox="0 0 100 100" fill="none" xmlns="http://www.w3.org/2000/svg">
<path d="M47.3722 16.1737C48.8334 15.4359 50.5584 15.435 52.0197 16.1727C52.9152 16.6249 53.6597 17.3293 54.1613 18.1981L81.3917 65.3631C81.944 66.3197 81.6167 67.5432 80.6603 68.0956C79.8704 68.5512 78.8607 68.2796 78.4059 67.4893L55.9728 28.5067C55.2698 27.2851 54.2252 26.295 52.9679 25.6581C50.9105 24.6159 48.4794 24.6159 46.422 25.6581C45.1647 26.295 44.1201 27.2851 43.4171 28.5067L20.9816 67.4909C20.5276 68.2798 19.5198 68.5506 18.7316 68.0956C17.7751 67.5432 17.4479 66.3197 18.0001 65.3631L45.2316 18.1971C45.7331 17.3287 46.477 16.6257 47.3722 16.1737Z" fill="#008BBE"/>
<path fill-rule="evenodd" clip-rule="evenodd" d="M52.0198 29.3646C50.5585 28.6269 48.8337 28.6269 47.3724 29.3647C46.477 29.8168 45.7329 30.5203 45.2314 31.389L18.5 77.689C17.6716 79.1239 18.1632 80.9586 19.5981 81.7871L24.7943 84.7871C26.2291 85.6155 28.0639 85.1239 28.8923 83.689L48.83 49.1558C49.2149 48.4891 50.1772 48.4891 50.5621 49.1558L70.5 83.689C71.3285 85.1239 73.1632 85.6155 74.5981 84.7871L79.7943 81.7871C81.2291 80.9586 81.7208 79.1239 80.8923 77.689L54.1611 31.3892C53.6595 30.5204 52.9153 29.8168 52.0198 29.3646Z" fill="#00BBFF"/>
<rect x="45" y="66" width="50" height="29" rx="8" fill="#82FA7C"/>
<path d="M58.1364 86H54.0114V74.3636H58.1705C59.3409 74.3636 60.3485 74.5966 61.1932 75.0625C62.0379 75.5246 62.6875 76.1894 63.142 77.0568C63.6004 77.9242 63.8295 78.9621 63.8295 80.1705C63.8295 81.3826 63.6004 82.4242 63.142 83.2955C62.6875 84.1667 62.0341 84.8352 61.1818 85.3011C60.3333 85.767 59.3182 86 58.1364 86ZM56.4716 83.892H58.0341C58.7614 83.892 59.3731 83.7633 59.8693 83.5057C60.3693 83.2443 60.7443 82.8409 60.9943 82.2955C61.2481 81.7462 61.375 81.0379 61.375 80.1705C61.375 79.3106 61.2481 78.608 60.9943 78.0625C60.7443 77.517 60.3712 77.1155 59.875 76.858C59.3788 76.6004 58.767 76.4716 58.0398 76.4716H56.4716V83.892ZM65.652 86V74.3636H73.4929V76.392H68.1122V79.1648H73.0895V81.1932H68.1122V83.9716H73.5156V86H65.652ZM77.5511 74.3636L80.3636 83.2045H80.4716L83.2898 74.3636H86.017L82.0057 86H78.8352L74.8182 74.3636H77.5511Z" fill="black"/>
</svg>
