<svg width="100" height="100" viewBox="0 0 100 100" fill="none" xmlns="http://www.w3.org/2000/svg">
  <g clip-path="url(#clip0_987_112)">
    <path fill-rule="evenodd" clip-rule="evenodd"
      d="M52.0198 16.1732C50.5585 15.4354 48.8337 15.4354 47.3724 16.1733V16.1733C46.477 16.6254 45.7329 17.3289 45.2314 18.1976L18 65.3636C17.4477 66.3202 17.7755 67.5434 18.7321 68.0957L25.6603 72.0957C26.6169 72.6479 27.8401 72.3202 28.3923 71.3636L48.83 35.9644C49.2149 35.2977 50.1772 35.2977 50.5621 35.9644L71 71.3636C71.5523 72.3202 72.7755 72.6479 73.7321 72.0957L80.6603 68.0957C81.6169 67.5434 81.9446 66.3202 81.3923 65.3636L54.1611 18.1978C53.6595 17.329 52.9153 16.6254 52.0198 16.1732V16.1732Z"
      fill="#414141" />
    <path fill-rule="evenodd" clip-rule="evenodd"
      d="M52.0198 22.2689C50.5585 21.5312 48.8337 21.5312 47.3724 22.269V22.269C46.477 22.7211 45.7329 23.4246 45.2314 24.2933L18 71.4593C17.4477 72.4159 17.7755 73.6391 18.7321 74.1914L25.6603 78.1914C26.6169 78.7436 27.8401 78.4159 28.3923 77.4593L48.83 42.0601C49.2149 41.3934 50.1772 41.3934 50.5621 42.0601L71 77.4593C71.5523 78.4159 72.7755 78.7437 73.7321 78.1914L80.6603 74.1914C81.6169 73.6391 81.9446 72.4159 81.3923 71.4593L54.1611 24.2935C53.6595 23.4247 52.9153 22.7211 52.0198 22.2689V22.2689Z"
      fill="#636363" />
    <path fill-rule="evenodd" clip-rule="evenodd"
      d="M52.0198 28.3646C50.5585 27.6269 48.8337 27.6269 47.3724 28.3647V28.3647C46.477 28.8168 45.7329 29.5203 45.2314 30.389L18 77.555C17.4477 78.5116 17.7755 79.7348 18.7321 80.2871L25.6603 84.2871C26.6169 84.8394 27.8401 84.5116 28.3923 83.555L48.83 48.1558C49.2149 47.4891 50.1772 47.4891 50.5621 48.1558L71 83.555C71.5523 84.5116 72.7755 84.8394 73.7321 84.2871L80.6603 80.2871C81.6169 79.7348 81.9446 78.5116 81.3923 77.555L54.1611 30.3892C53.6595 29.5204 52.9153 28.8168 52.0198 28.3646V28.3646Z"
      fill="url(#paint0_radial_987_112)" />
  </g>
  <defs>
    <radialGradient id="paint0_radial_987_112" cx="0" cy="0" r="1" gradientUnits="userSpaceOnUse"
      gradientTransform="translate(50 27.1914) rotate(90) scale(58 65.2847)">
      <stop stop-color="#FFB800" />
      <stop offset="1" stop-color="#8C6400" />
    </radialGradient>
    <clipPath id="clip0_987_112">
      <rect width="70" height="70" fill="white" transform="translate(15 15)" />
    </clipPath>
  </defs>
</svg>