<svg width="100" height="100" viewBox="0 0 100 100" fill="none" xmlns="http://www.w3.org/2000/svg">
  <path
    d="M47.3723 16.1735C48.8336 15.4356 50.5585 15.4357 52.0198 16.1735C52.9152 16.6256 53.6598 17.3291 54.1614 18.1979L81.3919 65.3639C81.944 66.3204 81.6167 67.543 80.6604 68.0953V68.0953C79.8705 68.551 78.8608 68.2794 78.406 67.4891L55.9729 28.5065C55.2699 27.2848 54.2254 26.2948 52.968 25.6578C50.9106 24.6157 48.4795 24.6157 46.4221 25.6578C45.1648 26.2948 44.1203 27.2849 43.4172 28.5065L20.9817 67.4907C20.5278 68.2795 19.5199 68.5504 18.7317 68.0953V68.0953C17.7754 67.543 17.4481 66.3204 18.0003 65.3639L45.2317 18.1979C45.7332 17.3292 46.4769 16.6256 47.3723 16.1735Z"
    fill="#FFDC87" />
  <path fill-rule="evenodd" clip-rule="evenodd"
    d="M52.0198 28.3646C50.5585 27.6269 48.8337 27.6269 47.3724 28.3647V28.3647C46.477 28.8168 45.7329 29.5203 45.2314 30.389L18.5 76.689C17.6716 78.1239 18.1632 79.9586 19.5981 80.7871L24.7943 83.7871C26.2291 84.6155 28.0639 84.1239 28.8923 82.689L48.83 48.1558C49.2149 47.4891 50.1772 47.4891 50.5621 48.1558L70.5 82.689C71.3285 84.1239 73.1632 84.6155 74.5981 83.7871L79.7943 80.7871C81.2291 79.9586 81.7208 78.1239 80.8923 76.689L54.1611 30.3892C53.6595 29.5204 52.9153 28.8168 52.0198 28.3646V28.3646Z"
    fill="url(#paint0_linear_1143_31)" />
  <defs>
    <linearGradient id="paint0_linear_1143_31" x1="49.6962" y1="27.1914" x2="49.6962" y2="85.2871"
      gradientUnits="userSpaceOnUse">
      <stop stop-color="#FFCD54" />
      <stop offset="1" stop-color="#926C12" />
    </linearGradient>
  </defs>
</svg>