<svg width="100" height="100" viewBox="0 0 100 100" fill="none" xmlns="http://www.w3.org/2000/svg">
  <path
    d="M47.3726 16.1729C48.8337 15.4352 50.5589 15.4352 52.02 16.1729C52.9153 16.6249 53.6591 17.3288 54.1606 18.1973L81.3921 65.3633C81.9443 66.3198 81.617 67.5434 80.6606 68.0957V68.0957C79.8707 68.5513 78.861 68.2798 78.4062 67.4894L55.9731 28.5069C55.2701 27.2851 54.2248 26.2952 52.9673 25.6582C50.9099 24.6162 48.4797 24.6161 46.4224 25.6582C45.165 26.2952 44.1205 27.2853 43.4175 28.5069L20.982 67.4911C20.528 68.2799 19.5201 68.5508 18.7319 68.0957V68.0957C17.7753 67.5435 17.4472 66.3199 17.9995 65.3633L45.231 18.1973C45.7325 17.3287 46.4772 16.625 47.3726 16.1729Z"
    fill="#80FFEA" />
  <path fill-rule="evenodd" clip-rule="evenodd"
    d="M52.0198 28.3646C50.5585 27.6269 48.8337 27.6269 47.3724 28.3647V28.3647C46.477 28.8168 45.7329 29.5203 45.2314 30.389L18.5 76.689C17.6716 78.1239 18.1632 79.9586 19.5981 80.7871L24.7943 83.7871C26.2291 84.6155 28.0639 84.1239 28.8923 82.689L48.83 48.1558C49.2149 47.4891 50.1772 47.4891 50.5621 48.1558L70.5 82.689C71.3285 84.1239 73.1632 84.6155 74.5981 83.7871L79.7943 80.7871C81.2291 79.9586 81.7208 78.1239 80.8923 76.689L54.1611 30.3892C53.6595 29.5204 52.9153 28.8168 52.0198 28.3646V28.3646Z"
    fill="url(#paint0_linear_1143_38)" />
  <defs>
    <linearGradient id="paint0_linear_1143_38" x1="49.6962" y1="27.1914" x2="49.6962" y2="85.2871"
      gradientUnits="userSpaceOnUse">
      <stop stop-color="#00F7E8" />
      <stop offset="1" stop-color="#006353" />
    </linearGradient>
  </defs>
</svg>