<svg width="100" height="100" viewBox="0 0 100 100" fill="none" xmlns="http://www.w3.org/2000/svg">
  <path
    d="M47.3719 16.1734C48.8331 15.4356 50.5581 15.4357 52.0194 16.1734C52.9149 16.6256 53.6594 17.329 54.161 18.1978L81.3924 65.3639C81.9445 66.3204 81.6164 67.543 80.66 68.0953V68.0953C79.8701 68.5509 78.8604 68.2794 78.4055 67.489L55.9725 28.5064C55.2694 27.2848 54.225 26.2947 52.9676 25.6578C50.9102 24.6157 48.4791 24.6156 46.4217 25.6578C45.1645 26.2947 44.1208 27.2849 43.4178 28.5064L20.9823 67.4907C20.5283 68.2795 19.5205 68.5503 18.7322 68.0953V68.0953C17.7757 67.543 17.4476 66.3204 17.9998 65.3639L45.2313 18.1978C45.7328 17.3292 46.4766 16.6256 47.3719 16.1734Z"
    fill="#6CB8D6" />
  <path fill-rule="evenodd" clip-rule="evenodd"
    d="M52.0198 28.3646C50.5585 27.6269 48.8337 27.6269 47.3724 28.3647V28.3647C46.477 28.8168 45.7329 29.5203 45.2314 30.389L18.5 76.689C17.6716 78.1239 18.1632 79.9586 19.5981 80.7871L24.7943 83.7871C26.2291 84.6155 28.0639 84.1239 28.8923 82.689L48.83 48.1558C49.2149 47.4891 50.1772 47.4891 50.5621 48.1558L70.5 82.689C71.3285 84.1239 73.1632 84.6155 74.5981 83.7871L79.7943 80.7871C81.2291 79.9586 81.7208 78.1239 80.8923 76.689L54.1611 30.3892C53.6595 29.5204 52.9153 28.8168 52.0198 28.3646V28.3646Z"
    fill="url(#paint0_linear_1143_73)" />
  <defs>
    <linearGradient id="paint0_linear_1143_73" x1="49.6962" y1="27.1914" x2="49.6962" y2="85.2871"
      gradientUnits="userSpaceOnUse">
      <stop stop-color="#00BBFF" />
      <stop offset="1" stop-color="#1B7CA0" />
    </linearGradient>
  </defs>
</svg>