<svg width="24" height="24" viewBox="0 0 24 24" fill="none" xmlns="http://www.w3.org/2000/svg">
  <path
    d="M21 21C21 21.5523 20.5523 22 20 22H4C3.44772 22 3 21.5523 3 21V18L4.89062 2.87598C4.95318 2.37555 5.37849 2 5.88281 2H18.1172C18.6215 2 19.0468 2.37555 19.1094 2.87598L21 18V21Z"
    fill="#E85454" />
  <rect x="3.5" y="18.5" width="17" height="3" rx="0.5" fill="#808080" stroke="#ABABAB" />
  <path
    d="M18.1172 2C18.6215 2 19.0468 2.37555 19.1094 2.87598L21 18V18.5L19.1094 3.37598C19.0468 2.87555 18.6215 2.5 18.1172 2.5H5.88281C5.37849 2.5 4.95318 2.87555 4.89062 3.37598L3 18.5V18L4.89062 2.87598C4.95318 2.37555 5.37849 2 5.88281 2H18.1172Z"
    fill="white" fill-opacity="0.4" />
  <rect x="17" y="19" width="2" height="2" fill="#00FF00" />
  <rect opacity="0.5" x="15" y="19" width="1" height="2" fill="#FF4B4B" />
  <g opacity="0.5">
    <path
      d="M15.3334 10.4167C15.3334 12.5 13.875 13.5417 12.1417 14.1458C12.0509 14.1766 11.9523 14.1751 11.8625 14.1417C10.125 13.5417 8.66669 12.5 8.66669 10.4167V7.50001C8.66669 7.38951 8.71059 7.28353 8.78873 7.20539C8.86687 7.12725 8.97285 7.08335 9.08335 7.08335C9.91669 7.08335 10.9584 6.58335 11.6834 5.95001C11.7716 5.8746 11.8839 5.83316 12 5.83316C12.1161 5.83316 12.2284 5.8746 12.3167 5.95001C13.0459 6.58751 14.0834 7.08335 14.9167 7.08335C15.0272 7.08335 15.1332 7.12725 15.2113 7.20539C15.2895 7.28353 15.3334 7.38951 15.3334 7.50001V10.4167Z"
      stroke="black" stroke-width="1.25" stroke-linecap="round" stroke-linejoin="round" />
  </g>
</svg>