<svg width="24" height="24" viewBox="0 0 24 24" fill="none" xmlns="http://www.w3.org/2000/svg">
  <path opacity="0.2"
    d="M21 9.5H3C2.44772 9.5 2 9.94772 2 10.5V20.5C2 21.0523 2.44772 21.5 3 21.5H21C21.5523 21.5 22 21.0523 22 20.5V10.5C22 9.94772 21.5523 9.5 21 9.5Z"
    fill="black" />
  <path
    d="M2 17C2 17.554 2.446 18 3 18H21C21.554 18 22 17.554 22 17V6C22 5.446 21.554 5 21 5H12C10.5 5 10 3 8.5 3H3C2.446 3 2 3.446 2 4"
    fill="#B08B46" />
  <path opacity="0.2"
    d="M21 8.5H3C2.44772 8.5 2 8.94772 2 9.5V19.5C2 20.0523 2.44772 20.5 3 20.5H21C21.5523 20.5 22 20.0523 22 19.5V9.5C22 8.94772 21.5523 8.5 21 8.5Z"
    fill="black" />
  <path
    d="M19 7H5C4.44772 7 4 7.44772 4 8V14C4 14.5523 4.44772 15 5 15H19C19.5523 15 20 14.5523 20 14V8C20 7.44772 19.5523 7 19 7Z"
    fill="white" />
  <path
    d="M21 9H3C2.44772 9 2 9.44772 2 10V20C2 20.5523 2.44772 21 3 21H21C21.5523 21 22 20.5523 22 20V10C22 9.44772 21.5523 9 21 9Z"
    fill="#FFC968" />
  <path opacity="0.1"
    d="M3 3C2.446 3 2 3.446 2 4V4.5C2 3.946 2.446 3.5 3 3.5H8.5C10 3.5 10.5 5.5 12 5.5H21C21.554 5.5 22 5.946 22 6.5V6C22 5.446 21.554 5 21 5H12C10.5 5 10 3 8.5 3H3Z"
    fill="white" />
  <path opacity="0.2"
    d="M17.7202 16.707H12.7202C12.4441 16.707 12.2202 16.9309 12.2202 17.207V18.207C12.2202 18.4832 12.4441 18.707 12.7202 18.707H17.7202C17.9964 18.707 18.2202 18.4832 18.2202 18.207V17.207C18.2202 16.9309 17.9964 16.707 17.7202 16.707Z"
    fill="black" />
  <path
    d="M17.7202 16.207H12.7202C12.4441 16.207 12.2202 16.4309 12.2202 16.707V17.707C12.2202 17.9832 12.4441 18.207 12.7202 18.207H17.7202C17.9964 18.207 18.2202 17.9832 18.2202 17.707V16.707C18.2202 16.4309 17.9964 16.207 17.7202 16.207Z"
    fill="#8E703B" />
  <path opacity="0.2"
    d="M10.079 13.6597L6.37059 17.1637C6.16586 17.3571 6.16586 17.6708 6.37059 17.8642L7.11271 18.5654C7.31744 18.7589 7.64937 18.7589 7.8541 18.5654L11.5625 15.0614C11.7673 14.868 11.7673 14.5544 11.5625 14.3609L10.8204 13.6597C10.6157 13.4663 10.2838 13.4663 10.079 13.6597Z"
    fill="black" />
  <path opacity="0.2"
    d="M9.70369 15.3962L6.34319 12.2209C6.15767 12.0456 6.17324 11.7467 6.37797 11.5533L7.12009 10.852C7.32482 10.6586 7.64119 10.6439 7.82671 10.8192L11.1872 13.9944C11.3727 14.1697 11.3572 14.4687 11.1524 14.6621L10.4103 15.3633C10.2056 15.5568 9.88922 15.5715 9.70369 15.3962Z"
    fill="black" />
  <path
    d="M10.0864 13.1582L6.37791 16.6622C6.17318 16.8557 6.17318 17.1693 6.37791 17.3628L7.12003 18.064C7.32476 18.2574 7.6567 18.2574 7.86143 18.064L11.5699 14.56C11.7746 14.3665 11.7746 14.0529 11.5699 13.8595L10.8278 13.1582C10.6231 12.9648 10.2911 12.9648 10.0864 13.1582Z"
    fill="#8E703B" />
  <path
    d="M10.079 15.2559L6.37059 11.7519C6.16586 11.5585 6.16586 11.2448 6.37059 11.0514L7.11271 10.3502C7.31744 10.1567 7.64937 10.1567 7.8541 10.3502L11.5625 13.8542C11.7673 14.0476 11.7673 14.3613 11.5625 14.5547L10.8204 15.2559C10.6157 15.4494 10.2838 15.4494 10.079 15.2559Z"
    fill="#8E703B" />
</svg>