<svg width="24" height="24" viewBox="0 0 24 24" fill="none" xmlns="http://www.w3.org/2000/svg">
  <path opacity="0.2"
    d="M21 9.5H3C2.44772 9.5 2 9.94772 2 10.5V20.5C2 21.0523 2.44772 21.5 3 21.5H21C21.5523 21.5 22 21.0523 22 20.5V10.5C22 9.94772 21.5523 9.5 21 9.5Z"
    fill="black" />
  <path
    d="M2 17C2 17.554 2.446 18 3 18H21C21.554 18 22 17.554 22 17V6C22 5.446 21.554 5 21 5H12C10.5 5 10 3 8.5 3H3C2.446 3 2 3.446 2 4"
    fill="#B08B46" />
  <path opacity="0.2"
    d="M21 8.5H3C2.44772 8.5 2 8.94772 2 9.5V19.5C2 20.0523 2.44772 20.5 3 20.5H21C21.5523 20.5 22 20.0523 22 19.5V9.5C22 8.94772 21.5523 8.5 21 8.5Z"
    fill="black" />
  <path
    d="M19 7H5C4.44772 7 4 7.44772 4 8V14C4 14.5523 4.44772 15 5 15H19C19.5523 15 20 14.5523 20 14V8C20 7.44772 19.5523 7 19 7Z"
    fill="white" />
  <path
    d="M21 9H3C2.44772 9 2 9.44772 2 10V20C2 20.5523 2.44772 21 3 21H21C21.5523 21 22 20.5523 22 20V10C22 9.44772 21.5523 9 21 9Z"
    fill="#FFC968" />
  <path opacity="0.1"
    d="M3 3C2.446 3 2 3.446 2 4V4.5C2 3.946 2.446 3.5 3 3.5H8.5C10 3.5 10.5 5.5 12 5.5H21C21.554 5.5 22 5.946 22 6.5V6C22 5.446 21.554 5 21 5H12C10.5 5 10 3 8.5 3H3Z"
    fill="white" />
  <path
    d="M9.5 11C9.223 11 9 11.223 9 11.5V17.5C9 17.777 9.223 18 9.5 18H14.5C14.777 18 15 17.777 15 17.5V13L13 11H9.5Z"
    fill="#8E703B" />
</svg>