<svg width="24" height="24" viewBox="0 0 24 24" fill="none" xmlns="http://www.w3.org/2000/svg">
  <path
    d="M21 21C21 21.5523 20.5523 22 20 22H4C3.44772 22 3 21.5523 3 21V18L4.89062 2.87598C4.95318 2.37555 5.37849 2 5.88281 2H18.1172C18.6215 2 19.0468 2.37555 19.1094 2.87598L21 18V21Z"
    fill="#A77B17" />
  <rect x="3.5" y="18.5" width="17" height="3" rx="0.5" fill="#808080" stroke="#ABABAB" />
  <path
    d="M18.1172 2C18.6215 2 19.0468 2.37555 19.1094 2.87598L21 18V18.5L19.1094 3.37598C19.0468 2.87555 18.6215 2.5 18.1172 2.5H5.88281C5.37849 2.5 4.95318 2.87555 4.89062 3.37598L3 18.5V18L4.89062 2.87598C4.95318 2.37555 5.37849 2 5.88281 2H18.1172Z"
    fill="white" fill-opacity="0.4" />
  <rect x="17" y="19" width="2" height="2" fill="#00FF00" />
  <rect opacity="0.5" x="15" y="19" width="1" height="2" fill="#FF4B4B" />
  <path opacity="0.5"
    d="M7.8023 14L5.7453 8.544H7.3733L8.2313 11.118C8.3193 11.3893 8.40363 11.6643 8.4843 11.943C8.56496 12.2217 8.64563 12.5077 8.7263 12.801H8.7703C8.85096 12.5077 8.92796 12.2217 9.0013 11.943C9.08196 11.6643 9.1663 11.3893 9.2543 11.118L10.1123 8.544H11.6633L9.6613 14H7.8023ZM15.113 14.132C14.7097 14.132 14.3467 14.088 14.024 14C13.7013 13.912 13.4153 13.7947 13.166 13.648C12.9167 13.5013 12.6967 13.3363 12.506 13.153L13.232 12.13C13.386 12.2547 13.5473 12.372 13.716 12.482C13.8847 12.5847 14.0643 12.669 14.255 12.735C14.453 12.7937 14.662 12.823 14.882 12.823C15.146 12.823 15.3807 12.7827 15.586 12.702C15.7913 12.614 15.949 12.4893 16.059 12.328C16.1763 12.1667 16.235 11.9687 16.235 11.734C16.235 11.382 16.114 11.1143 15.872 10.931C15.63 10.7477 15.3257 10.656 14.959 10.656C14.7317 10.656 14.5373 10.6817 14.376 10.733C14.222 10.7843 14.024 10.876 13.782 11.008L13.067 10.546L13.254 7.015H17.533V8.379H14.651L14.53 9.688C14.6987 9.62933 14.849 9.589 14.981 9.567C15.1203 9.53767 15.278 9.523 15.454 9.523C15.8867 9.523 16.2827 9.6 16.642 9.754C17.0087 9.908 17.302 10.1463 17.522 10.469C17.742 10.7917 17.852 11.1987 17.852 11.69C17.852 12.2107 17.7237 12.6543 17.467 13.021C17.2103 13.3803 16.873 13.6553 16.455 13.846C16.037 14.0367 15.5897 14.132 15.113 14.132Z"
    fill="black" />
</svg>