<svg width="24" height="24" viewBox="0 0 24 24" fill="none" xmlns="http://www.w3.org/2000/svg">
  <path
    d="M21 21C21 21.5523 20.5523 22 20 22H4C3.44772 22 3 21.5523 3 21V18L4.89062 2.87598C4.95318 2.37555 5.37849 2 5.88281 2H18.1172C18.6215 2 19.0468 2.37555 19.1094 2.87598L21 18V21Z"
    fill="#3988C8" />
  <rect x="3.5" y="18.5" width="17" height="3" rx="0.5" fill="#808080" stroke="#ABABAB" />
  <path
    d="M18.1172 2C18.6215 2 19.0468 2.37555 19.1094 2.87598L21 18V18.5L19.1094 3.37598C19.0468 2.87555 18.6215 2.5 18.1172 2.5H5.88281C5.37849 2.5 4.95318 2.87555 4.89062 3.37598L3 18.5V18L4.89062 2.87598C4.95318 2.37555 5.37849 2 5.88281 2H18.1172Z"
    fill="white" fill-opacity="0.4" />
  <g opacity="0.5">
    <path
      d="M12 14.1667V12.0833M13.25 8.33334V5.83334M10.75 8.33334V5.83334M14.0833 8.33334C14.1938 8.33334 14.2998 8.37724 14.378 8.45538C14.4561 8.53352 14.5 8.6395 14.5 8.75001V10.4167C14.5 10.8587 14.3244 11.2826 14.0118 11.5952C13.6993 11.9077 13.2754 12.0833 12.8333 12.0833H11.1667C10.7246 12.0833 10.3007 11.9077 9.98816 11.5952C9.67559 11.2826 9.5 10.8587 9.5 10.4167V8.75001C9.5 8.6395 9.5439 8.53352 9.62204 8.45538C9.70018 8.37724 9.80616 8.33334 9.91667 8.33334H14.0833Z"
      stroke="black" stroke-width="1.25" stroke-linecap="round" stroke-linejoin="round" />
  </g>
  <rect x="17" y="19" width="2" height="2" fill="#00FF00" />
  <rect opacity="0.5" x="15" y="19" width="1" height="2" fill="#FF4B4B" />
</svg>