<svg width="24" height="24" viewBox="0 0 24 24" fill="none" xmlns="http://www.w3.org/2000/svg">
  <path
    d="M21 21C21 21.5523 20.5523 22 20 22H4C3.44772 22 3 21.5523 3 21V18L4.89062 2.87598C4.95318 2.37555 5.37849 2 5.88281 2H18.1172C18.6215 2 19.0468 2.37555 19.1094 2.87598L21 18V21Z"
    fill="#DADADA" />
  <rect x="3.5" y="18.5" width="17" height="3" rx="0.5" fill="#808080" stroke="#ABABAB" />
  <path
    d="M18.1172 2C18.6215 2 19.0468 2.37555 19.1094 2.87598L21 18V18.5L19.1094 3.37598C19.0468 2.87555 18.6215 2.5 18.1172 2.5H5.88281C5.37849 2.5 4.95318 2.87555 4.89062 3.37598L3 18.5V18L4.89062 2.87598C4.95318 2.37555 5.37849 2 5.88281 2H18.1172Z"
    fill="white" fill-opacity="0.4" />
  <rect x="17" y="19" width="2" height="2" fill="#00FF00" />
  <rect opacity="0.5" x="15" y="19" width="1" height="2" fill="#FF4B4B" />
  <g opacity="0.5">
    <path
      d="M12 10V9.16667M12 12.5V11.6667M13.6666 10V9.16667M13.6666 12.5V11.6667M7.83331 9.58333H8.45831M15.3333 12.5V11.6667M15.3333 11.6667C15.7936 11.6667 16.1666 11.2936 16.1666 10.8333V8.33333C16.1666 7.8731 15.7936 7.5 15.3333 7.5H8.66665C8.20641 7.5 7.83331 7.8731 7.83331 8.33333V10.8333C7.83331 11.2936 8.20641 11.6667 8.66665 11.6667M15.3333 11.6667H8.66665M15.5416 9.58333H16.1666M8.66665 12.5V11.6667M10.3333 10V9.16667M10.3333 12.5V11.6667"
      stroke="black" stroke-width="1.25" stroke-linecap="round" stroke-linejoin="round" />
  </g>
</svg>