<svg width="24" height="24" viewBox="0 0 24 24" fill="none" xmlns="http://www.w3.org/2000/svg">
  <path
    d="M21 21C21 21.5523 20.5523 22 20 22H4C3.44772 22 3 21.5523 3 21V18L4.89062 2.87598C4.95318 2.37555 5.37849 2 5.88281 2H18.1172C18.6215 2 19.0468 2.37555 19.1094 2.87598L21 18V21Z"
    fill="#FF9F05" />
  <rect x="3.5" y="18.5" width="17" height="3" rx="0.5" fill="#808080" stroke="#ABABAB" />
  <path
    d="M18.1172 2C18.6215 2 19.0468 2.37555 19.1094 2.87598L21 18V18.5L19.1094 3.37598C19.0468 2.87555 18.6215 2.5 18.1172 2.5H5.88281C5.37849 2.5 4.95318 2.87555 4.89062 3.37598L3 18.5V18L4.89062 2.87598C4.95318 2.37555 5.37849 2 5.88281 2H18.1172Z"
    fill="white" fill-opacity="0.4" />
  <rect x="17" y="19" width="2" height="2" fill="#00FF00" />
  <rect opacity="0.5" x="15" y="19" width="1" height="2" fill="#FF4B4B" />
  <g opacity="0.5">
    <path
      d="M14.9166 13.75V12.9167C14.9166 12.4746 14.7411 12.0507 14.4285 11.7382C14.1159 11.4256 13.692 11.25 13.25 11.25H10.75C10.308 11.25 9.88403 11.4256 9.57147 11.7382C9.25891 12.0507 9.08331 12.4746 9.08331 12.9167V13.75M13.6666 7.91667C13.6666 8.83714 12.9205 9.58333 12 9.58333C11.0795 9.58333 10.3333 8.83714 10.3333 7.91667C10.3333 6.99619 11.0795 6.25 12 6.25C12.9205 6.25 13.6666 6.99619 13.6666 7.91667Z"
      stroke="black" stroke-width="1.25" stroke-linecap="round" stroke-linejoin="round" />
  </g>
</svg>