<svg width="24" height="24" viewBox="0 0 24 24" fill="none" xmlns="http://www.w3.org/2000/svg">
  <path opacity="0.2"
    d="M12 23.25C18.0061 23.25 22.875 18.3811 22.875 12.375C22.875 6.3689 18.0061 1.5 12 1.5C5.9939 1.5 1.125 6.3689 1.125 12.375C1.125 18.3811 5.9939 23.25 12 23.25Z"
    fill="black" />
  <path
    d="M12 22.875C18.0061 22.875 22.875 18.0061 22.875 12C22.875 5.9939 18.0061 1.125 12 1.125C5.9939 1.125 1.125 5.9939 1.125 12C1.125 18.0061 5.9939 22.875 12 22.875Z"
    fill="#FF9800" />
  <path opacity="0.2"
    d="M12 1.125C9.11577 1.125 6.34967 2.27076 4.31021 4.31021C2.27076 6.34967 1.125 9.11577 1.125 12C1.12668 12.0611 1.12888 12.1221 1.13159 12.1831C1.18188 9.3334 2.3489 6.61734 4.38151 4.61938C6.41412 2.62143 9.14985 1.50128 12 1.5C14.85 1.50206 17.5853 2.62285 19.6174 4.62119C21.6494 6.61954 22.8158 9.33572 22.8655 12.1853C22.8692 12.1236 22.8724 12.0618 22.875 12C22.875 9.11577 21.7292 6.34967 19.6898 4.31021C17.6503 2.27076 14.8842 1.125 12 1.125Z"
    fill="white" />
  <path opacity="0.2"
    d="M12.0156 5.49964C11.8831 5.49752 11.7515 5.52176 11.6285 5.57094C11.5054 5.62013 11.3934 5.69327 11.2989 5.78613C11.2043 5.87899 11.1292 5.98971 11.0778 6.11186C11.0264 6.23401 10.9998 6.36515 10.9996 6.49766C10.9993 6.63018 11.0254 6.76142 11.0763 6.88377C11.1272 7.00611 11.2019 7.11713 11.2961 7.21035C11.3902 7.30358 11.502 7.37716 11.6249 7.42682C11.7477 7.47649 11.8792 7.50124 12.0117 7.49964C13.4095 7.50204 14.7423 8.08905 15.6875 9.11878C16.538 10.0454 16.9984 11.2523 16.9981 12.4996H15.0039L16.5039 14.4996L18.0039 16.4996L19.5039 14.4996L21.0039 12.4996H18.998C18.9978 10.7543 18.3497 9.06116 17.1602 7.76526C15.8376 6.32451 13.9713 5.50305 12.0156 5.49964ZM6 8.49964L4.5 10.4996L3 12.4996H5.00586C5.00608 14.245 5.6542 15.9381 6.84375 17.234C8.16627 18.6748 10.0326 19.4962 11.9883 19.4996C12.1208 19.5018 12.2524 19.4775 12.3754 19.4283C12.4985 19.3792 12.6105 19.306 12.7051 19.2131C12.7996 19.1203 12.8747 19.0096 12.9261 18.8874C12.9775 18.7653 13.0041 18.6341 13.0043 18.5016C13.0046 18.3691 12.9785 18.2379 12.9276 18.1155C12.8767 17.9932 12.802 17.8822 12.7078 17.7889C12.6137 17.6957 12.5019 17.6221 12.379 17.5725C12.2562 17.5228 12.1247 17.498 11.9922 17.4996C10.5944 17.4972 9.26164 16.9102 8.31641 15.8805C7.46587 14.9539 7.00552 13.747 7.00586 12.4996H9L7.5 10.4996L6 8.49964Z"
    fill="black" />
  <path
    d="M12.0156 5.00013C11.8831 4.99801 11.7515 5.02225 11.6285 5.07143C11.5054 5.12061 11.3934 5.19376 11.2988 5.28662C11.2043 5.37948 11.1292 5.4902 11.0778 5.61234C11.0264 5.73449 10.9998 5.86563 10.9996 5.99815C10.9993 6.13066 11.0254 6.2619 11.0763 6.38425C11.1272 6.5066 11.2019 6.61761 11.2961 6.71084C11.3902 6.80407 11.502 6.87765 11.6249 6.92731C11.7477 6.97697 11.8792 7.00172 12.0117 7.00013C13.4095 7.00253 14.7423 7.58953 15.6875 8.61927C16.538 9.54584 16.9984 10.7528 16.998 12.0001H15.0039L16.5039 14.0001L18.0039 16.0001L19.5039 14.0001L21.0039 12.0001H18.998C18.9978 10.2548 18.3497 8.56165 17.1602 7.26575C15.8376 5.825 13.9713 5.00354 12.0156 5.00013ZM6 8.00013L4.5 10.0001L3 12.0001H5.00586C5.00608 13.7455 5.6542 15.4386 6.84375 16.7345C8.16627 18.1753 10.0326 18.9967 11.9883 19.0001C12.1208 19.0022 12.2524 18.978 12.3754 18.9288C12.4985 18.8796 12.6105 18.8065 12.7051 18.7136C12.7996 18.6208 12.8747 18.5101 12.9261 18.3879C12.9775 18.2658 13.0041 18.1346 13.0043 18.0021C13.0046 17.8696 12.9785 17.7384 12.9276 17.616C12.8767 17.4937 12.802 17.3826 12.7078 17.2894C12.6137 17.1962 12.5019 17.1226 12.379 17.0729C12.2562 17.0233 12.1247 16.9985 11.9922 17.0001C10.5944 16.9977 9.26164 16.4107 8.31641 15.381C7.46587 14.4544 7.00552 13.2475 7.00586 12.0001H9L7.5 10.0001L6 8.00013Z"
    fill="white" />
</svg>